<?xml version="1.0" encoding="utf-8"?>
<!-- Generator: Adobe Illustrator 26.3.1, SVG Export Plug-In . SVG Version: 6.00 Build 0)  -->
<svg version="1.1" id="Ebene_1" xmlns="http://www.w3.org/2000/svg" xmlns:xlink="http://www.w3.org/1999/xlink" x="0px" y="0px"
	 viewBox="0 0 87 90" style="enable-background:new 0 0 87 90;" xml:space="preserve">
<style type="text/css">
	.st0{fill-rule:evenodd;clip-rule:evenodd;fill:#FFFFFF;}
	.st1{fill:#FFFFFF;}
</style>
<g>
	<g>
		<polygon class="st0" points="70.3,21.5 70.4,21.5 70.4,21.7 70.3,21.7 		"/>
		<path class="st0" d="M16.1,44.8l1.1,2.3h7.5l-12-19.2h-0.6l-12,19.2h7.5l1.1-2.3H16.1L16.1,44.8z M10.7,40.8l1.7-3.6l1.8,3.6H10.7
			L10.7,40.8z"/>
		<polygon class="st0" points="30.2,47.1 30.2,35.4 35,35.8 35,31.3 19.6,31.3 19.6,35.8 24.4,35.4 24.4,47.1 		"/>
		<polygon class="st0" points="33.8,47.1 38.9,47.1 39.1,41.2 42.9,44 46.3,41.4 46.7,47.1 52.2,47.1 51.7,31.3 51.2,31.3 
			42.9,37.4 35,31.3 34.5,31.3 		"/>
		<path class="st0" d="M85.2,31.1c-1.9-1.9-5.6-1.9-7.2-1.7c-2,0.3-4.2,1-5.5,3.4c-1,1.8-1,3.9,0,5.6c1.3,2.2,4,2.8,5.6,2.9
			c1,0,2.2,0,2.6,0.8c0.2,0.4,0.2,0.8,0,1.1c-0.4,0.6-1.2,0.8-1.8,0.8c-1.2,0-2-0.6-2.8-1.8l-4.6,1.6c0.4,1,0.8,1.5,1.2,2
			c2,2.2,5.8,2.4,7.5,2.2c2.1-0.2,4.8-1.2,6.2-3.8c0.9-1.7,0.9-4.1,0-5.6c-1.3-2.3-3.9-2.6-5.7-2.8c-0.9-0.1-2.5,0-2.9-1
			c-0.2-0.3-0.1-0.7,0.1-1c0.5-0.6,1.6-0.7,2.1-0.6c1.2,0.1,1.6,0.6,2.1,1.7l4.4-1.6C86.1,32.4,85.8,31.7,85.2,31.1L85.2,31.1z"/>
		<path class="st0" d="M71.8,39.3c0-4.8-4.1-8.6-9.6-8.6c-5.5,0-9.6,3.9-9.6,8.6c0,4.8,4.2,8.7,9.6,8.7
			C67.6,47.9,71.8,44.1,71.8,39.3L71.8,39.3z M62.1,35.9c2.1,0,3.6,1.6,3.6,3.4s-1.6,3.4-3.5,3.4c-2.1,0-3.6-1.6-3.6-3.4
			C58.5,37.4,60,35.9,62.1,35.9L62.1,35.9z"/>
		<path class="st0" d="M12.7,25.7C18.1,14.1,30.3,6,44.5,6s26.4,8.1,31.7,19.7H70C65.6,15,55.8,7.6,44.5,7.6S23.4,15,18.9,25.7H12.7
			L12.7,25.7z"/>
		<path class="st0" d="M77,50.2c-4.9,12.6-17.6,21.6-32.5,21.6s-27.7-9-32.5-21.6h6.2c4.1,11.7,14.3,19.9,26.3,19.9
			s22.2-8.3,26.3-19.9L77,50.2L77,50.2z"/>
	</g>
	<g>
		<path class="st1" d="M9.6,83.9L8,78.6h0C8,79.7,8,80.4,8,80.8v3.2H6.8v-6.8h1.9l1.6,5.2h0l1.7-5.2H14v6.8h-1.3v-3.2
			c0-0.2,0-0.3,0-0.5c0-0.2,0-0.7,0.1-1.6h0l-1.8,5.3L9.6,83.9L9.6,83.9z"/>
		<path class="st1" d="M17.9,84c-0.8,0-1.5-0.2-1.9-0.7s-0.7-1.1-0.7-1.9c0-0.9,0.2-1.5,0.6-2c0.4-0.5,1-0.7,1.8-0.7
			c0.7,0,1.3,0.2,1.7,0.6c0.4,0.4,0.6,1,0.6,1.7v0.7h-3.3c0,0.4,0.1,0.7,0.4,0.9c0.2,0.2,0.5,0.3,0.9,0.3c0.3,0,0.6,0,0.9-0.1
			c0.3-0.1,0.6-0.2,0.9-0.3v1.1c-0.2,0.1-0.5,0.2-0.8,0.3C18.7,84,18.3,84,17.9,84z M17.7,79.7c-0.3,0-0.5,0.1-0.7,0.3
			s-0.3,0.5-0.3,0.8h2c0-0.3-0.1-0.6-0.3-0.8C18.3,79.8,18,79.7,17.7,79.7z"/>
		<path class="st1" d="M22.8,84c-0.6,0-1.1-0.2-1.4-0.7c-0.4-0.5-0.5-1.1-0.5-2c0-0.8,0.2-1.5,0.5-2s0.8-0.7,1.5-0.7
			c0.6,0,1.1,0.2,1.5,0.8h0c-0.1-0.4-0.1-0.7-0.1-1v-1.7h1.4v7.2h-1.1l-0.3-0.7h-0.1C24,83.8,23.5,84,22.8,84z M23.3,82.9
			c0.4,0,0.6-0.1,0.8-0.3c0.2-0.2,0.3-0.6,0.3-1.1v-0.2c0-0.6-0.1-0.9-0.3-1.2c-0.2-0.2-0.5-0.4-0.8-0.4c-0.3,0-0.6,0.1-0.7,0.4
			c-0.2,0.3-0.3,0.7-0.3,1.2c0,0.5,0.1,0.9,0.3,1.2C22.7,82.8,23,82.9,23.3,82.9z"/>
		<path class="st1" d="M27.1,77.4c0-0.5,0.3-0.7,0.8-0.7s0.8,0.2,0.8,0.7c0,0.2-0.1,0.4-0.2,0.5c-0.1,0.1-0.3,0.2-0.6,0.2
			C27.4,78.1,27.1,77.9,27.1,77.4z M28.6,83.9h-1.4v-5.2h1.4V83.9z"/>
		<path class="st1" d="M33.7,83.9h-4.1v-0.8l2.4-3.3h-2.2v-1.1h3.9v0.9l-2.3,3.2h2.4L33.7,83.9L33.7,83.9z"/>
		<path class="st1" d="M34.6,77.4c0-0.5,0.3-0.7,0.8-0.7c0.5,0,0.8,0.2,0.8,0.7c0,0.2-0.1,0.4-0.2,0.5c-0.1,0.1-0.3,0.2-0.6,0.2
			C34.9,78.1,34.6,77.9,34.6,77.4z M36.1,83.9h-1.4v-5.2h1.4V83.9z"/>
		<path class="st1" d="M42.4,83.9H41v-3c0-0.4-0.1-0.7-0.2-0.8c-0.1-0.2-0.3-0.3-0.6-0.3c-0.4,0-0.7,0.1-0.9,0.4
			c-0.2,0.3-0.3,0.7-0.3,1.3v2.4h-1.4v-5.2h1.1l0.2,0.7H39c0.2-0.2,0.4-0.4,0.7-0.6c0.3-0.1,0.6-0.2,0.9-0.2c0.6,0,1.1,0.2,1.4,0.5
			c0.3,0.3,0.5,0.8,0.5,1.4L42.4,83.9L42.4,83.9z"/>
		<path class="st1" d="M46.5,83.9h-1.4v-5.6h-1.8v-1.2h5.1v1.2h-1.8L46.5,83.9L46.5,83.9z"/>
		<path class="st1" d="M51.7,84c-0.8,0-1.5-0.2-2-0.7S49,82.2,49,81.4c0-0.9,0.2-1.5,0.7-2s1-0.7,1.8-0.7c0.7,0,1.3,0.2,1.7,0.6
			c0.4,0.4,0.6,1,0.6,1.7v0.7h-3.3c0,0.4,0.1,0.7,0.4,0.9c0.2,0.2,0.5,0.3,0.9,0.3c0.3,0,0.6,0,0.9-0.1c0.3-0.1,0.6-0.2,0.9-0.3v1.1
			c-0.2,0.1-0.5,0.2-0.8,0.3C52.4,84,52.1,84,51.7,84z M51.5,79.7c-0.3,0-0.5,0.1-0.7,0.3c-0.2,0.2-0.3,0.5-0.3,0.8h2
			c0-0.3-0.1-0.6-0.3-0.8C52,79.8,51.8,79.7,51.5,79.7z"/>
		<path class="st1" d="M57,84c-1.6,0-2.4-0.9-2.4-2.7c0-0.9,0.2-1.6,0.7-2c0.4-0.5,1.1-0.7,1.9-0.7c0.6,0,1.1,0.1,1.6,0.3l-0.4,1.1
			c-0.2-0.1-0.4-0.2-0.6-0.2s-0.4-0.1-0.6-0.1c-0.7,0-1.1,0.5-1.1,1.6c0,1,0.4,1.5,1.1,1.5c0.3,0,0.5,0,0.8-0.1s0.5-0.2,0.7-0.3v1.2
			c-0.2,0.2-0.5,0.2-0.7,0.3C57.7,84,57.4,84,57,84z"/>
		<path class="st1" d="M64.6,83.9h-1.4v-3c0-0.8-0.3-1.1-0.8-1.1c-0.4,0-0.7,0.1-0.9,0.4c-0.2,0.3-0.3,0.7-0.3,1.3v2.4h-1.4v-7.2
			h1.4v1.5c0,0.1,0,0.4,0,0.8l0,0.4h0.1c0.3-0.5,0.8-0.8,1.5-0.8c0.6,0,1.1,0.2,1.4,0.5c0.3,0.3,0.5,0.8,0.5,1.4L64.6,83.9
			L64.6,83.9z"/>
		<path class="st1" d="M70.8,83.9h-1.4v-3c0-0.4-0.1-0.7-0.2-0.8c-0.1-0.2-0.3-0.3-0.6-0.3c-0.4,0-0.7,0.1-0.9,0.4
			c-0.2,0.3-0.3,0.7-0.3,1.3v2.4H66v-5.2h1.1l0.2,0.7h0.1c0.2-0.2,0.4-0.4,0.7-0.6s0.6-0.2,0.9-0.2c0.6,0,1.1,0.2,1.4,0.5
			c0.3,0.3,0.5,0.8,0.5,1.4L70.8,83.9L70.8,83.9z"/>
		<path class="st1" d="M72.2,77.4c0-0.5,0.3-0.7,0.8-0.7c0.5,0,0.8,0.2,0.8,0.7c0,0.2-0.1,0.4-0.2,0.5c-0.1,0.1-0.3,0.2-0.6,0.2
			C72.5,78.1,72.2,77.9,72.2,77.4z M73.7,83.9h-1.4v-5.2h1.4V83.9z"/>
		<path class="st1" d="M76.5,81.1l0.6-0.8l1.4-1.6h1.6L78.1,81l2.2,2.9h-1.6l-1.5-2.1l-0.6,0.5v1.6h-1.4v-7.2h1.4v3.2L76.5,81.1
			L76.5,81.1L76.5,81.1z"/>
	</g>
</g>
</svg>
