<?xml version="1.0" encoding="utf-8"?>
<!-- Generator: Adobe Illustrator 26.3.1, SVG Export Plug-In . SVG Version: 6.00 Build 0)  -->
<svg version="1.1" id="LOGO" xmlns="http://www.w3.org/2000/svg" xmlns:xlink="http://www.w3.org/1999/xlink" x="0px" y="0px"
	 viewBox="0 0 566.9 234.4" style="enable-background:new 0 0 566.9 234.4;" xml:space="preserve">
<style type="text/css">
	.st0{fill:#FFFFFF;}
</style>
<g>
	<path class="st0" d="M565.4,22.3c-1-4.9-2.7-8.9-5.3-12.3c-1-1.2-2.1-2.3-3.3-3.3c-2-1.6-4.3-2.9-7-3.9c-0.2-0.1-0.4-0.2-0.6-0.3
		c-4.7-1.7-10.7-2.5-18-2.5H337v145.7h24.1V21.6h66.5c4,0,6.8,0.8,8.3,2.3c1.6,1.5,2.4,4.1,2.4,7.8v114h24.2V21.6h67.1
		c4.9,0,8.3,1,10.1,2.8c1.9,1.9,2.8,5.3,2.8,10.1v111.1h24.4V38.9C566.9,32.7,566.4,27.2,565.4,22.3L565.4,22.3z"/>
	<path class="st0" d="M137.6,124.1H38.4c-4.4,0-7.4-1.2-9-3.4c-1.6-2.3-2.4-6-2.4-11.2V36.1c0-5.1,0.8-8.9,2.4-11.1
		c1.6-2.3,4.6-3.4,9-3.4h99.2V0H45.4c-14.2,0-25,3-32.2,9.2S2.4,25.2,2.4,38.7v68.3c0,13.5,3.6,23.3,10.8,29.5c0,0,0.1,0,0.1,0.1
		c2,1.7,4.4,3.2,6.9,4.4c6.6,3.1,15,4.7,25.2,4.7h92.2V124.1L137.6,124.1z"/>
	<path class="st0" d="M292.5,136.4c7.2-6.1,10.8-16,10.8-29.5V38.7c0-13.5-3.6-23.3-10.8-29.5C285.3,3,274.6,0,260.3,0h-92.2v21.6
		h99.3c4.4,0,7.4,1.1,9,3.4c1.6,2.2,2.4,6,2.4,11.1v73.4c0,5.2-0.8,8.9-2.4,11.2c-1.6,2.2-4.6,3.4-9,3.4h-99.3v21.6h92.2
		C274.6,145.7,285.3,142.6,292.5,136.4z"/>
	<path class="st0" d="M153,52.3c-11.4,0-20.7,9.3-20.7,20.7s9.2,20.7,20.7,20.7s20.6-9.2,20.6-20.7S164.4,52.3,153,52.3z"/>
</g>
<g>
	<path class="st0" d="M0,211.2c0-13.1,9.5-23.1,22.6-23.1c13.8,0,19.7,9.3,20.9,14.5h-8.7c-1.3-2.3-5-6.8-12.2-6.8
		c-8.4,0-13.8,7-13.8,15.4s5.4,15.4,13.8,15.4c7.8,0,11.2-4.5,12.3-6.8h8.6c-1,4.7-6.5,14.6-20.9,14.6C9.5,234.4,0,224.3,0,211.2z"
		/>
	<path class="st0" d="M55.1,211.2c0-13.4,10.1-23.1,23.5-23.1s23.5,9.7,23.5,23.1s-10.2,23.1-23.5,23.1S55.1,224.7,55.1,211.2z
		 M93.3,211.2c0-8.5-5.9-15.4-14.8-15.4s-14.8,6.9-14.8,15.4s5.8,15.4,14.8,15.4S93.3,219.8,93.3,211.2z"/>
	<path class="st0" d="M160,233.8h-6.6l-27.2-34.3v34.1H118v-44.8h9.8l24,30.7v-30.7h8.1L160,233.8L160,233.8z"/>
	<path class="st0" d="M221.7,233.8H215l-27.2-34.3v34.1h-8.2v-44.8h9.8l24,30.7v-30.7h8.1L221.7,233.8L221.7,233.8z"/>
	<path class="st0" d="M241.6,188.8h36.3v7.3h-27.8v10.2h16.6v7.4h-16.6v12.4h30.3v7.5h-38.8L241.6,188.8L241.6,188.8z"/>
	<path class="st0" d="M290.5,211.2c0-13.1,9.5-23.1,22.6-23.1c13.8,0,19.7,9.3,20.9,14.5h-8.7c-1.3-2.3-5-6.8-12.2-6.8
		c-8.4,0-13.8,7-13.8,15.4s5.4,15.4,13.8,15.4c7.8,0,11.2-4.5,12.3-6.8h8.6c-1,4.7-6.5,14.6-20.9,14.6
		C299.9,234.4,290.4,224.3,290.5,211.2L290.5,211.2z"/>
	<path class="st0" d="M343.2,188.8h44v7.6h-17.8v37.2H361v-37.2h-17.8L343.2,188.8L343.2,188.8z"/>
	<path class="st0" d="M396.7,211.2c0-13.1,9.5-23.1,22.6-23.1c13.8,0,19.7,9.3,20.9,14.5h-8.7c-1.3-2.3-5-6.8-12.2-6.8
		c-8.4,0-13.8,7-13.8,15.4s5.4,15.4,13.8,15.4c7.8,0,11.2-4.5,12.3-6.8h8.6c-1,4.7-6.5,14.6-20.9,14.6
		C406.1,234.4,396.7,224.3,396.7,211.2L396.7,211.2z"/>
	<path class="st0" d="M453.3,211.2c0-13.4,10.1-23.1,23.5-23.1s23.5,9.7,23.5,23.1s-10.1,23.1-23.5,23.1S453.3,224.7,453.3,211.2z
		 M491.6,211.2c0-8.5-5.9-15.4-14.8-15.4s-14.8,6.9-14.8,15.4s5.8,15.4,14.8,15.4S491.6,219.8,491.6,211.2z"/>
	<path class="st0" d="M541.3,221.4l13.4-32.6h12.2v44.8h-8.2v-36.7l-15,36.9H538l-14.9-36.6v36.4h-7.8v-44.8h12.7L541.3,221.4
		L541.3,221.4z"/>
</g>
</svg>
