<?xml version="1.0" encoding="utf-8"?>
<!-- Generator: Adobe Illustrator 26.3.1, SVG Export Plug-In . SVG Version: 6.00 Build 0)  -->
<svg version="1.1" id="Ebene_1" xmlns="http://www.w3.org/2000/svg" xmlns:xlink="http://www.w3.org/1999/xlink" x="0px" y="0px"
	 viewBox="0 0 85 85" style="enable-background:new 0 0 85 85;" xml:space="preserve">
<style type="text/css">
	.st0{fill:#FFFFFF;}
</style>
<g>
	<g>
		<path class="st0" d="M79.7,74c0,3.2-2.6,5.9-5.8,5.9c-3.2,0-5.8-2.6-5.8-5.9c0-3.2,2.6-5.8,5.8-5.8C77,68.1,79.7,70.7,79.7,74
			 M49.5,69.4L49.5,69.4H35.2h-0.1C22.8,68.9,12.5,59.9,10.1,48h-8v34.8h80.7V48h-8C72.2,59.9,62,69,49.5,69.4"/>
		<path class="st0" d="M72.5,71.8h1.8c0.4,0,0.7,0.1,0.9,0.3c0.2,0.2,0.3,0.4,0.3,0.7c0,0.2-0.1,0.4-0.2,0.5
			c-0.1,0.2-0.3,0.3-0.4,0.3c-0.2,0.1-0.5,0.1-0.8,0.1h-1.6C72.6,73.7,72.6,71.8,72.5,71.8z M71.8,76.9h0.8v-2.6h0.9
			c0.2,0,0.3,0,0.4,0s0.2,0.1,0.3,0.2c0.1,0.1,0.2,0.2,0.4,0.4c0.1,0.2,0.3,0.4,0.5,0.8l0.8,1.2h1l-1-1.6c-0.2-0.3-0.4-0.6-0.6-0.8
			c-0.1-0.1-0.3-0.2-0.5-0.3c0.6-0.1,1-0.3,1.2-0.5c0.3-0.3,0.4-0.6,0.4-1c0-0.3-0.1-0.6-0.2-0.9c-0.2-0.3-0.4-0.4-0.6-0.5
			c-0.3-0.1-0.7-0.2-1.2-0.2h-2.5v5.8H71.8z"/>
		<path class="st0" d="M62.4,21.7L62.4,21.7L62.4,21.7c0-1.1-0.9-2-2-2s-1.9,0.9-2,1.9l0,0l0,0l0,0l0,0v19.9l0,0c0,1.1,0.9,2,2,2
			s2-0.9,2-2l0,0V21.7L62.4,21.7z"/>
		<path class="st0" d="M67.3,43.3L67.3,43.3c0,2.5-2,4.6-4.6,4.7l0,0l0,0h-0.2h-0.2h-3.9h-0.2c-2.6,0-4.8-2.1-4.8-4.7l0,0V19.9l0,0
			c0-2.5,2-4.6,4.6-4.7l0,0l0,0h0.2h0.2h3.9h0.2c2.6,0,4.7,2.1,4.8,4.7l0,0V43.3z M51.5,48h-8.3H43V15.2H48V43h3.3v5H51.5z M39.3,48
			h-5.1V15.2h5.1V48z M31.5,43.3L31.5,43.3c0,2.5-2,4.6-4.6,4.7l0,0l0,0h-0.2h-0.2h-3.9h-0.2h-0.1h-4.7v-6.1l0,0V21.4l0,0v-6.1h4.6
			l0,0h0.2h0.2h3.9h0.2c2.6,0,4.7,2.1,4.8,4.7l0,0C31.4,20,31.4,43.3,31.5,43.3z M2.1,2.2v30.2h10.7l0,0c0.8,0,1.4,0.6,1.4,1.4V47
			c0.3,9.6,8.2,17.3,17.9,17.3h20.8c2.9,0,5.7-0.7,8.2-2l0.4-0.2c5.4-2.9,9.1-8.5,9.4-14.9V33.7c0-0.8,0.6-1.4,1.4-1.4l0,0h10.7V2.2
			H2.1z"/>
		<path class="st0" d="M26.5,21.7L26.5,21.7L26.5,21.7c0-1.1-0.9-2-2-2h-2v1.9l0,0l0,0l0,0l0,0v19.9l0,0v0.1v1.9h1.9l0,0
			c1.1,0,2-0.9,2-2l0,0L26.5,21.7L26.5,21.7z"/>
	</g>
</g>
</svg>
