<?xml version="1.0" encoding="utf-8"?>
<!-- Generator: Adobe Illustrator 26.3.1, SVG Export Plug-In . SVG Version: 6.00 Build 0)  -->
<svg version="1.1" id="Ebene_1" xmlns="http://www.w3.org/2000/svg" xmlns:xlink="http://www.w3.org/1999/xlink" x="0px" y="0px"
	 viewBox="0 0 471.9 123.7" style="enable-background:new 0 0 471.9 123.7;" xml:space="preserve">
<style type="text/css">
	.st0{fill:#FFFFFF;}
</style>
<g id="elero_neu">
	<path class="st0" d="M436,55c-10.6,0-20-9.5-20-20.2s9-20.3,20-20.3s20,9.1,20,20.3S446.7,55,436,55 M436,0
		c-20.1,0-35.8,15.3-35.8,34.7s15.4,34.6,35.8,34.6s35.8-14.9,35.8-34.6S456.1,0,436,0"/>
	<path class="st0" d="M34.1,14.4c9,0,16,5.4,17.9,13.4H16.3C18,21.1,23.4,14.4,34.1,14.4 M34.2,0C14.7,0,0,14.9,0,34.6
		c0,17.3,12.4,34.7,36,34.7c11.5,0,21-4.5,29.6-14.2l1.6-1.7l-11.7-9.3l-1.4,1.6C49,51.8,42.7,55,35.9,55c-9.6,0-17.1-5.5-19.6-14
		H69v-2.2C69,15.9,54.7,0,34.2,0"/>
	<path class="st0" d="M234.2,14.4c8.9,0,16,5.4,17.9,13.4h-35.8C218.1,21.1,223.5,14.4,234.2,14.4 M234.4,0
		c-19.5,0-34.2,14.9-34.2,34.6c0,17.3,12.4,34.7,36,34.7c11.5,0,21-4.5,29.6-14.2l1.5-1.7l-11.7-9.3l-1.4,1.6
		c-5.1,6-11.4,9.2-18.2,9.2c-9.6,0-17.1-5.5-19.6-14h52.6v-2.2C269.1,15.9,254.8,0,234.4,0"/>
	<path class="st0" d="M342.2,0.7c-15.5,0-25.5,10.1-25.5,25.8v42.1h15V26.5c0-9.3,6.6-10.7,10.6-10.7h10.4V0.7H342.2z"/>
	<path class="st0" d="M131.6,42.8V0.7h-15v42.1c0,15.7,10,25.8,25.5,25.8h10.4V53.5h-10.4C138.2,53.5,131.6,52.1,131.6,42.8"/>
</g>
<g id="elero_slogan_neu">
	<path class="st0" d="M125.4,110.9c0,1.1,0.1,1.9,0.5,2.7s0.8,1.3,1.4,1.7s1.3,0.7,2.2,0.9s1.7,0.3,2.7,0.3c0.5,0,1.1-0.1,1.8-0.2
		s1.2-0.4,1.8-0.7s1-0.8,1.4-1.3c0.4-0.5,0.6-1.2,0.6-1.9c0-0.6-0.1-1.1-0.4-1.5s-0.6-0.8-1-1.1c-0.4-0.3-0.9-0.5-1.4-0.7
		s-1-0.3-1.5-0.4l-4.6-1.1c-0.6-0.2-1.2-0.3-1.8-0.6c-0.6-0.2-1.1-0.5-1.5-0.9c-0.4-0.4-0.8-0.9-1-1.4s-0.4-1.2-0.4-2.1
		c0-0.5,0.1-1.1,0.3-1.8c0.2-0.7,0.6-1.3,1.1-1.9c0.5-0.6,1.3-1.1,2.2-1.5c0.9-0.4,2.1-0.6,3.6-0.6c1,0,2,0.1,2.9,0.4
		c0.9,0.3,1.7,0.7,2.4,1.2s1.3,1.2,1.7,2c0.4,0.8,0.6,1.7,0.6,2.8h-2c0-0.8-0.2-1.5-0.5-2.1s-0.7-1.1-1.2-1.5s-1.1-0.7-1.8-0.9
		c-0.7-0.2-1.4-0.3-2.1-0.3c-0.7,0-1.3,0.1-1.9,0.2c-0.6,0.1-1.2,0.4-1.7,0.7c-0.5,0.3-0.8,0.7-1.1,1.3c-0.3,0.5-0.4,1.2-0.4,1.9
		c0,0.5,0.1,0.9,0.2,1.3c0.2,0.4,0.4,0.7,0.7,0.9s0.6,0.4,1,0.6c0.4,0.2,0.8,0.3,1.2,0.4l5,1.2c0.7,0.2,1.4,0.4,2.1,0.7
		s1.2,0.6,1.7,1s0.9,0.9,1.2,1.5s0.4,1.3,0.4,2.2c0,0.2,0,0.5-0.1,0.9s-0.2,0.8-0.4,1.2c-0.2,0.4-0.4,0.9-0.8,1.3s-0.8,0.8-1.4,1.2
		s-1.3,0.7-2.2,0.9c-0.9,0.2-1.9,0.3-3.1,0.3s-2.3-0.1-3.4-0.4c-1-0.3-1.9-0.7-2.7-1.3c-0.7-0.6-1.3-1.3-1.7-2.3
		c-0.4-0.9-0.6-2-0.5-3.2L125.4,110.9L125.4,110.9z"/>
	<path class="st0" d="M154.1,117.7h-1.7V115h-0.1c-0.5,1-1.2,1.8-2.1,2.3c-0.9,0.5-1.9,0.8-3.1,0.8c-0.9,0-1.8-0.1-2.4-0.4
		s-1.2-0.6-1.6-1.1c-0.4-0.5-0.7-1.1-0.9-1.8c-0.2-0.7-0.3-1.5-0.3-2.4v-9.7h1.8v9.7c0,1.3,0.4,2.4,0.9,3.1s1.6,1,3.1,1
		c0.8,0,1.4-0.2,2-0.5c0.6-0.3,1-0.8,1.4-1.3c0.4-0.6,0.6-1.2,0.8-1.9s0.3-1.5,0.3-2.2v-7.8h1.8L154.1,117.7L154.1,117.7z"/>
	<path class="st0" d="M157.1,102.8h1.8v2.6h0.1c0.2-0.4,0.4-0.8,0.7-1.2c0.3-0.4,0.7-0.7,1.1-0.9c0.4-0.3,0.9-0.5,1.4-0.6
		s1-0.2,1.5-0.2c1,0,1.9,0.1,2.6,0.4c0.7,0.3,1.3,0.7,1.7,1.1s0.7,1.1,0.9,1.8c0.2,0.7,0.3,1.5,0.3,2.4v9.6h-1.8v-9.3
		c0-0.6-0.1-1.2-0.2-1.8s-0.3-1-0.6-1.4s-0.7-0.7-1.2-0.9s-1.1-0.3-1.8-0.3s-1.4,0.1-1.9,0.4c-0.6,0.3-1.1,0.6-1.5,1.1
		c-0.4,0.4-0.7,1-0.9,1.6c-0.2,0.6-0.3,1.3-0.4,2v8.7h-1.8L157.1,102.8L157.1,102.8z"/>
	<path class="st0" d="M181.3,110.9c0,1.1,0.1,1.9,0.5,2.7s0.8,1.3,1.4,1.7s1.3,0.7,2.2,0.9s1.7,0.3,2.7,0.3c0.5,0,1.1-0.1,1.8-0.2
		s1.2-0.4,1.8-0.7s1-0.8,1.4-1.3c0.4-0.5,0.6-1.2,0.6-1.9c0-0.6-0.1-1.1-0.4-1.5s-0.6-0.8-1-1.1c-0.4-0.3-0.9-0.5-1.4-0.7
		s-1-0.3-1.5-0.4l-4.6-1.1c-0.6-0.2-1.2-0.3-1.8-0.6c-0.6-0.2-1.1-0.5-1.5-0.9c-0.4-0.4-0.8-0.9-1-1.4s-0.4-1.2-0.4-2.1
		c0-0.5,0.1-1.1,0.3-1.8c0.2-0.7,0.6-1.3,1.1-1.9c0.5-0.6,1.3-1.1,2.2-1.5c0.9-0.4,2.1-0.6,3.6-0.6c1,0,2,0.1,2.9,0.4
		c0.9,0.3,1.7,0.7,2.4,1.2s1.3,1.2,1.7,2c0.4,0.8,0.6,1.7,0.6,2.8h-2c0-0.8-0.2-1.5-0.5-2.1s-0.7-1.1-1.2-1.5s-1.1-0.7-1.8-0.9
		c-0.7-0.2-1.4-0.3-2.1-0.3c-0.7,0-1.3,0.1-1.9,0.2c-0.6,0.1-1.2,0.4-1.6,0.7c-0.5,0.3-0.9,0.7-1.1,1.3c-0.3,0.5-0.4,1.2-0.4,1.9
		c0,0.5,0.1,0.9,0.2,1.3c0.2,0.4,0.4,0.7,0.7,0.9s0.6,0.4,1,0.6c0.4,0.2,0.8,0.3,1.2,0.4l5,1.2c0.7,0.2,1.4,0.4,2.1,0.7
		s1.2,0.6,1.7,1s0.9,0.9,1.2,1.5s0.4,1.3,0.4,2.2c0,0.2,0,0.5-0.1,0.9s-0.2,0.8-0.4,1.2c-0.2,0.4-0.4,0.9-0.8,1.3s-0.8,0.8-1.4,1.2
		s-1.3,0.7-2.2,0.9c-0.9,0.2-1.9,0.3-3.1,0.3s-2.3-0.1-3.4-0.4c-1-0.3-1.9-0.7-2.7-1.3c-0.7-0.6-1.3-1.3-1.7-2.3
		c-0.4-0.9-0.6-2-0.5-3.2L181.3,110.9L181.3,110.9z"/>
	<path class="st0" d="M197.8,97h1.8v8.3h0.1c0.2-0.4,0.4-0.8,0.7-1.2c0.3-0.4,0.7-0.7,1.1-0.9c0.4-0.3,0.9-0.5,1.4-0.6
		s1-0.2,1.5-0.2c1,0,1.9,0.1,2.6,0.4c0.7,0.3,1.3,0.7,1.7,1.1s0.7,1.1,0.9,1.8c0.2,0.7,0.3,1.5,0.3,2.4v9.6h-1.8v-9.3
		c0-0.6-0.1-1.2-0.2-1.8s-0.3-1-0.6-1.4s-0.7-0.7-1.2-0.9s-1.1-0.3-1.8-0.3s-1.4,0.1-1.9,0.4c-0.6,0.3-1.1,0.6-1.5,1.1
		c-0.4,0.4-0.7,1-0.9,1.6c-0.2,0.6-0.3,1.3-0.4,2v8.7h-1.8L197.8,97L197.8,97z"/>
	<path class="st0" d="M212.8,107.3c0.1-1.8,0.7-3,1.8-3.8s2.5-1.2,4.2-1.2c0.7,0,1.3,0.1,2,0.2c0.7,0.1,1.2,0.4,1.8,0.7
		c0.5,0.3,0.9,0.8,1.3,1.5c0.3,0.6,0.5,1.4,0.5,2.4v7.9c0,0.7,0.4,1.1,1.1,1.1c0.2,0,0.4,0,0.6-0.1v1.5c-0.2,0-0.4,0.1-0.6,0.1
		s-0.4,0-0.6,0c-0.5,0-0.8-0.1-1.1-0.2c-0.3-0.1-0.5-0.3-0.6-0.5c-0.1-0.2-0.3-0.5-0.3-0.8c-0.1-0.3-0.1-0.7-0.1-1.1h-0.1
		c-0.3,0.5-0.7,0.9-1,1.3s-0.7,0.7-1.1,0.9c-0.4,0.3-0.9,0.5-1.4,0.6s-1.2,0.2-1.9,0.2s-1.4-0.1-1.9-0.3c-0.6-0.2-1.1-0.4-1.6-0.8
		s-0.8-0.8-1.1-1.4c-0.3-0.6-0.4-1.2-0.4-1.9c0-1,0.2-1.9,0.7-2.4c0.5-0.6,1.1-1,1.8-1.3c0.8-0.3,1.6-0.5,2.6-0.7
		c0.9-0.1,1.9-0.2,2.9-0.4c0.4,0,0.7-0.1,1-0.2c0.3-0.1,0.5-0.2,0.7-0.3c0.2-0.1,0.3-0.3,0.4-0.6s0.2-0.6,0.2-1
		c0-0.6-0.1-1.1-0.3-1.5c-0.2-0.4-0.5-0.7-0.8-0.9s-0.8-0.4-1.2-0.5c-0.5-0.1-1-0.1-1.5-0.1c-1.1,0-2.1,0.3-2.8,0.8
		c-0.7,0.6-1.1,1.4-1.2,2.7L212.8,107.3L212.8,107.3z M222.6,109.5L222.6,109.5c-0.2,0.2-0.4,0.4-0.7,0.5c-0.3,0.1-0.6,0.2-0.9,0.2
		c-0.8,0.1-1.6,0.3-2.4,0.4c-0.8,0.1-1.6,0.3-2.2,0.5c-0.7,0.2-1.2,0.5-1.7,0.9c-0.4,0.4-0.6,1-0.6,1.7c0,0.5,0.1,0.9,0.3,1.2
		s0.4,0.7,0.7,0.9c0.3,0.3,0.7,0.5,1.1,0.6c0.4,0.1,0.8,0.2,1.2,0.2c0.7,0,1.4-0.1,2-0.3s1.2-0.5,1.7-0.9c0.5-0.4,0.9-0.9,1.1-1.5
		s0.4-1.2,0.4-2L222.6,109.5L222.6,109.5z"/>
	<path class="st0" d="M240.8,117.7h-1.7v-2.8H239c-0.2,0.5-0.5,0.9-0.9,1.3c-0.4,0.4-0.8,0.8-1.3,1s-1,0.5-1.6,0.7
		c-0.6,0.2-1.1,0.2-1.6,0.2c-1.1,0-2.1-0.2-3-0.6s-1.5-1-2.1-1.7c-0.6-0.7-1-1.6-1.2-2.5s-0.4-2-0.4-3s0.1-2.1,0.4-3
		c0.3-0.9,0.7-1.8,1.2-2.5c0.6-0.7,1.3-1.3,2.1-1.7c0.8-0.4,1.8-0.6,3-0.6c0.6,0,1.1,0.1,1.6,0.2s1,0.3,1.5,0.6
		c0.5,0.3,0.9,0.6,1.2,1c0.4,0.4,0.6,0.9,0.8,1.4h0.1V97h1.8L240.8,117.7L240.8,117.7z M228.8,110.2c0,0.8,0.1,1.5,0.3,2.3
		c0.2,0.8,0.5,1.4,0.9,2s0.9,1.1,1.5,1.5c0.6,0.4,1.4,0.6,2.2,0.6c1,0,1.8-0.2,2.4-0.6c0.7-0.4,1.2-0.9,1.6-1.5
		c0.4-0.6,0.7-1.3,0.9-2c0.2-0.8,0.3-1.5,0.3-2.3s-0.1-1.5-0.3-2.3c-0.2-0.8-0.5-1.4-0.9-2c-0.4-0.6-1-1.1-1.6-1.5
		c-0.7-0.4-1.5-0.6-2.4-0.6c-0.9,0-1.6,0.2-2.2,0.6c-0.6,0.4-1.1,0.9-1.5,1.5c-0.4,0.6-0.7,1.3-0.9,2S228.8,109.5,228.8,110.2z"/>
	<path class="st0" d="M243.9,97.1h1.8v2.9h-1.8V97.1z M243.9,102.8h1.8v14.9h-1.8V102.8z"/>
	<path class="st0" d="M248.8,102.8h1.8v2.6h0.1c0.2-0.4,0.4-0.8,0.7-1.2c0.3-0.4,0.7-0.7,1.1-0.9s0.9-0.5,1.4-0.6
		c0.5-0.1,1-0.2,1.5-0.2c1,0,1.9,0.1,2.6,0.4c0.7,0.3,1.3,0.7,1.7,1.1s0.7,1.1,0.9,1.8c0.2,0.7,0.3,1.5,0.3,2.4v9.6h-1.8v-9.3
		c0-0.6-0.1-1.2-0.2-1.8c-0.1-0.6-0.3-1-0.6-1.4c-0.3-0.4-0.7-0.7-1.2-0.9c-0.5-0.2-1.1-0.3-1.8-0.3s-1.4,0.1-1.9,0.4
		c-0.6,0.3-1.1,0.6-1.5,1.1c-0.4,0.4-0.7,1-0.9,1.6c-0.2,0.6-0.3,1.3-0.4,2v8.7h-1.8C248.8,117.7,248.8,102.8,248.8,102.8z"/>
	<path class="st0" d="M276.6,116.5c0,1.1-0.1,2.1-0.4,3s-0.6,1.6-1.1,2.3c-0.5,0.6-1.2,1.1-2,1.4s-1.9,0.5-3.1,0.5
		c-0.8,0-1.5-0.1-2.2-0.3c-0.7-0.2-1.4-0.4-1.9-0.8s-1-0.8-1.4-1.4s-0.6-1.2-0.6-2h1.8c0.1,0.6,0.3,1,0.6,1.4c0.3,0.4,0.6,0.7,1,0.9
		s0.8,0.4,1.3,0.5s1,0.2,1.5,0.2c1.7,0,2.9-0.5,3.7-1.4s1.1-2.4,1.1-4.2v-2h-0.1c-0.4,0.9-1,1.7-1.9,2.2c-0.8,0.6-1.8,0.8-2.9,0.8
		c-1.2,0-2.2-0.2-3.1-0.6s-1.5-0.9-2.1-1.6c-0.5-0.7-1-1.5-1.2-2.4s-0.4-1.9-0.4-3s0.1-2,0.5-2.9c0.3-0.9,0.7-1.7,1.3-2.4
		c0.6-0.7,1.3-1.2,2.1-1.6s1.8-0.6,2.9-0.6s2.1,0.3,2.9,0.9s1.5,1.3,1.8,2.1h0.1v-2.6h1.8L276.6,116.5L276.6,116.5z M270,116
		c0.8,0,1.5-0.2,2.1-0.5c0.6-0.3,1.1-0.8,1.5-1.3s0.7-1.2,0.9-1.9s0.3-1.4,0.3-2.2s-0.1-1.5-0.3-2.2s-0.5-1.4-0.8-2
		c-0.4-0.6-0.9-1.1-1.5-1.4c-0.6-0.4-1.4-0.6-2.2-0.6s-1.6,0.2-2.2,0.5c-0.6,0.4-1.1,0.8-1.5,1.4s-0.7,1.2-0.9,2s-0.3,1.5-0.3,2.3
		s0.1,1.5,0.3,2.2s0.5,1.3,0.9,1.9s0.9,1,1.5,1.3C268.4,115.8,269.1,116,270,116L270,116z"/>
	<path class="st0" d="M288.7,110.9c0,1.1,0.1,1.9,0.5,2.7s0.8,1.3,1.4,1.7s1.3,0.7,2.2,0.9c0.8,0.2,1.7,0.3,2.7,0.3
		c0.5,0,1.1-0.1,1.8-0.2c0.6-0.2,1.2-0.4,1.8-0.7s1-0.8,1.4-1.3c0.4-0.5,0.5-1.2,0.5-1.9c0-0.6-0.1-1.1-0.4-1.5s-0.6-0.8-1-1.1
		c-0.4-0.3-0.9-0.5-1.4-0.7c-0.5-0.2-1-0.3-1.5-0.4l-4.6-1.1c-0.6-0.2-1.2-0.3-1.8-0.6s-1-0.5-1.5-0.9c-0.4-0.4-0.8-0.9-1-1.4
		s-0.4-1.2-0.4-2.1c0-0.5,0.1-1.1,0.3-1.8c0.2-0.7,0.5-1.3,1.1-1.9c0.5-0.6,1.3-1.1,2.2-1.5c0.9-0.4,2.1-0.6,3.6-0.6
		c1,0,2,0.1,2.9,0.4c0.9,0.3,1.7,0.7,2.4,1.2s1.3,1.2,1.7,2c0.4,0.8,0.6,1.7,0.6,2.8h-2c0-0.8-0.2-1.5-0.5-2.1s-0.7-1.1-1.2-1.5
		s-1.1-0.7-1.8-0.9s-1.4-0.3-2.1-0.3c-0.7,0-1.3,0.1-2,0.2c-0.6,0.1-1.2,0.4-1.6,0.7c-0.5,0.3-0.9,0.7-1.1,1.3
		c-0.3,0.5-0.4,1.2-0.4,1.9c0,0.5,0.1,0.9,0.2,1.3c0.2,0.4,0.4,0.7,0.7,0.9c0.3,0.2,0.6,0.4,1,0.6c0.4,0.2,0.8,0.3,1.2,0.4l5,1.2
		c0.7,0.2,1.4,0.4,2.1,0.7s1.2,0.6,1.7,1s0.9,0.9,1.2,1.5s0.4,1.3,0.4,2.2c0,0.2,0,0.5-0.1,0.9c0,0.4-0.2,0.8-0.4,1.2
		c-0.2,0.4-0.4,0.9-0.8,1.3s-0.8,0.8-1.4,1.2c-0.6,0.4-1.3,0.7-2.2,0.9c-0.9,0.2-1.9,0.3-3.1,0.3s-2.3-0.1-3.4-0.4s-1.9-0.7-2.7-1.3
		c-0.7-0.6-1.3-1.3-1.7-2.3c-0.4-0.9-0.6-2-0.5-3.2L288.7,110.9L288.7,110.9z"/>
	<path class="st0" d="M311.5,102.3c1.1,0,2.1,0.2,3,0.6c0.9,0.4,1.6,1,2.2,1.7c0.6,0.7,1,1.6,1.4,2.5s0.5,2,0.5,3s-0.1,2.1-0.5,3.1
		s-0.8,1.8-1.4,2.5c-0.6,0.7-1.3,1.3-2.2,1.7s-1.9,0.6-3,0.6s-2.1-0.2-3-0.6s-1.6-1-2.2-1.7c-0.6-0.7-1-1.6-1.4-2.5
		c-0.3-1-0.5-2-0.5-3.1s0.1-2.1,0.5-3c0.3-1,0.8-1.8,1.4-2.5c0.6-0.7,1.3-1.3,2.2-1.7C309.4,102.5,310.4,102.3,311.5,102.3z
		 M311.5,103.9c-0.9,0-1.6,0.2-2.3,0.6s-1.2,0.8-1.6,1.4c-0.4,0.6-0.8,1.3-1,2s-0.3,1.5-0.3,2.3s0.1,1.6,0.3,2.3s0.5,1.4,1,2
		c0.4,0.6,1,1.1,1.6,1.4c0.7,0.4,1.4,0.6,2.3,0.6s1.6-0.2,2.3-0.6s1.2-0.8,1.6-1.4s0.8-1.3,1-2s0.3-1.5,0.3-2.3s-0.1-1.6-0.3-2.3
		s-0.5-1.4-1-2c-0.4-0.6-1-1.1-1.6-1.4C313.2,104,312.4,103.9,311.5,103.9z"/>
	<path class="st0" d="M321,97h1.8v20.7H321C321,117.7,321,97,321,97z"/>
	<path class="st0" d="M338,117.7h-1.7V115h-0.1c-0.5,1-1.2,1.8-2.1,2.3s-1.9,0.8-3,0.8c-1,0-1.8-0.1-2.4-0.4s-1.2-0.6-1.6-1.1
		s-0.7-1.1-0.9-1.8c-0.2-0.7-0.3-1.5-0.3-2.4v-9.7h1.8v9.7c0,1.3,0.4,2.4,0.9,3.1c0.6,0.7,1.6,1,3,1c0.8,0,1.4-0.2,2-0.5
		s1-0.8,1.4-1.3c0.4-0.6,0.6-1.2,0.8-1.9c0.2-0.7,0.3-1.5,0.3-2.2v-7.8h1.8L338,117.7L338,117.7z"/>
	<path class="st0" d="M344,102.8h3v1.5h-3v10.1c0,0.6,0.1,1.1,0.2,1.4s0.6,0.5,1.2,0.6c0.5,0,1,0,1.6-0.1v1.6c-0.3,0-0.5,0-0.8,0
		c-0.3,0-0.5,0-0.8,0c-1.2,0-2.1-0.2-2.5-0.7s-0.7-1.4-0.7-2.6v-10.2h-2.6v-1.5h2.6v-4.5h1.8L344,102.8L344,102.8z"/>
	<path class="st0" d="M349.3,97.1h1.8v2.9h-1.8V97.1z M349.3,102.8h1.8v14.9h-1.8V102.8z"/>
	<path class="st0" d="M360.6,102.3c1.1,0,2.1,0.2,3,0.6c0.9,0.4,1.6,1,2.2,1.7c0.6,0.7,1,1.6,1.4,2.5s0.5,2,0.5,3s-0.1,2.1-0.5,3.1
		s-0.8,1.8-1.4,2.5c-0.6,0.7-1.3,1.3-2.2,1.7s-1.9,0.6-3,0.6s-2.1-0.2-3-0.6s-1.6-1-2.2-1.7c-0.6-0.7-1-1.6-1.4-2.5
		c-0.3-1-0.5-2-0.5-3.1s0.1-2.1,0.5-3c0.3-1,0.8-1.8,1.4-2.5c0.6-0.7,1.3-1.3,2.2-1.7C358.4,102.5,359.4,102.3,360.6,102.3z
		 M360.6,103.9c-0.9,0-1.6,0.2-2.3,0.6s-1.2,0.8-1.6,1.4c-0.4,0.6-0.8,1.3-1,2s-0.3,1.5-0.3,2.3s0.1,1.6,0.3,2.3s0.5,1.4,1,2
		c0.4,0.6,1,1.1,1.6,1.4c0.7,0.4,1.4,0.6,2.3,0.6s1.6-0.2,2.3-0.6s1.2-0.8,1.6-1.4s0.8-1.3,1-2s0.3-1.5,0.3-2.3s-0.1-1.6-0.3-2.3
		s-0.5-1.4-1-2c-0.4-0.6-1-1.1-1.6-1.4C362.2,104,361.4,103.9,360.6,103.9z"/>
	<path class="st0" d="M369.9,102.8h1.8v2.6h0.1c0.2-0.4,0.4-0.8,0.7-1.2c0.3-0.4,0.7-0.7,1.1-0.9s0.9-0.5,1.4-0.6
		c0.5-0.1,1-0.2,1.5-0.2c1,0,1.9,0.1,2.6,0.4c0.7,0.3,1.3,0.7,1.7,1.1s0.7,1.1,0.9,1.8c0.2,0.7,0.3,1.5,0.3,2.4v9.6h-1.8v-9.3
		c0-0.6-0.1-1.2-0.2-1.8c-0.1-0.6-0.3-1-0.6-1.4c-0.3-0.4-0.7-0.7-1.2-0.9c-0.5-0.2-1.1-0.3-1.8-0.3s-1.4,0.1-2,0.4
		s-1.1,0.6-1.5,1.1s-0.7,1-0.9,1.6c-0.2,0.6-0.3,1.3-0.4,2v8.7h-1.8L369.9,102.8L369.9,102.8z"/>
	<path class="st0" d="M394.1,107.1c0-0.6-0.1-1.1-0.4-1.5c-0.2-0.4-0.5-0.8-0.9-1c-0.4-0.3-0.8-0.5-1.2-0.6s-1-0.2-1.5-0.2
		c-0.4,0-0.8,0-1.2,0.1s-0.8,0.2-1.1,0.4c-0.4,0.2-0.6,0.5-0.8,0.8s-0.3,0.7-0.3,1.2c0,0.4,0.1,0.8,0.3,1c0.2,0.3,0.5,0.5,0.8,0.7
		s0.6,0.3,1,0.5c0.4,0.1,0.7,0.2,1,0.3l2.4,0.6c0.5,0.1,1,0.2,1.5,0.4c0.5,0.2,1,0.5,1.4,0.8c0.4,0.3,0.7,0.7,1,1.2
		c0.2,0.5,0.4,1.1,0.4,1.7c0,0.8-0.2,1.5-0.5,2.1c-0.4,0.6-0.8,1-1.4,1.4c-0.6,0.4-1.2,0.6-1.9,0.8c-0.7,0.2-1.4,0.2-2.1,0.2
		c-1.8,0-3.2-0.4-4.3-1.3s-1.7-2.2-1.9-4h1.8c0.1,1.2,0.5,2.2,1.3,2.8c0.8,0.6,1.8,0.9,3,0.9c0.4,0,0.9-0.1,1.4-0.1s0.9-0.3,1.3-0.5
		s0.7-0.5,1-0.9s0.4-0.8,0.4-1.3c0-0.4-0.1-0.8-0.3-1.1s-0.4-0.6-0.7-0.8c-0.3-0.2-0.7-0.4-1.1-0.5c-0.4-0.1-0.8-0.2-1.2-0.3
		l-2.3-0.5c-0.6-0.2-1.1-0.3-1.6-0.5c-0.5-0.2-0.9-0.4-1.3-0.8s-0.7-0.7-0.9-1.1s-0.3-1-0.3-1.6c0-0.8,0.2-1.4,0.5-1.9
		s0.8-1,1.3-1.3s1.1-0.6,1.8-0.7c0.7-0.2,1.3-0.2,2-0.2c0.8,0,1.5,0.1,2.1,0.3s1.2,0.5,1.7,0.9c0.5,0.4,0.9,0.9,1.2,1.5
		c0.3,0.6,0.5,1.3,0.5,2.1L394.1,107.1L394.1,107.1z"/>
	<path class="st0" d="M406.6,97h4.5l8.6,13.9h0.1V97h4.2v20.7h-4.5l-8.6-13.8h-0.1v13.8h-4.2C406.6,117.7,406.6,97,406.6,97z"/>
	<path class="st0" d="M431.5,100.4h-4.1V97h4.1V100.4z M427.3,102.7h4.1v15h-4.1V102.7z"/>
	<path class="st0" d="M444.5,108c-0.3-1.7-1.3-2.6-3-2.6c-0.7,0-1.2,0.2-1.6,0.4c-0.4,0.3-0.8,0.7-1.1,1.2c-0.3,0.5-0.5,1-0.6,1.6
		c-0.1,0.6-0.2,1.1-0.2,1.7s0.1,1.1,0.2,1.7c0.1,0.6,0.3,1.1,0.6,1.5s0.6,0.8,1.1,1.1c0.4,0.3,1,0.4,1.6,0.4c1,0,1.7-0.3,2.3-0.8
		c0.5-0.6,0.9-1.3,1-2.2h4c-0.3,2-1,3.5-2.3,4.6s-2.9,1.6-4.9,1.6c-1.1,0-2.2-0.2-3.1-0.6s-1.7-0.9-2.4-1.6
		c-0.7-0.7-1.2-1.5-1.5-2.4c-0.4-0.9-0.5-2-0.5-3.1s0.2-2.2,0.5-3.2c0.3-1,0.8-1.8,1.5-2.6c0.7-0.7,1.5-1.3,2.4-1.7s2-0.6,3.2-0.6
		c0.9,0,1.7,0.1,2.6,0.3s1.5,0.6,2.2,1.1c0.6,0.5,1.2,1.1,1.6,1.8s0.6,1.5,0.7,2.5L444.5,108L444.5,108z"/>
	<path class="st0" d="M453.9,111.2c0.1,1.3,0.4,2.3,1,2.9c0.6,0.6,1.5,0.9,2.7,0.9c0.8,0,1.5-0.2,2.1-0.6s1-0.8,1.1-1.3h3.6
		c-0.6,1.8-1.5,3.1-2.7,3.8c-1.2,0.8-2.6,1.2-4.3,1.2c-1.2,0-2.2-0.2-3.2-0.6c-1-0.4-1.8-0.9-2.4-1.6c-0.7-0.7-1.2-1.5-1.5-2.5
		s-0.5-2-0.5-3.2s0.2-2.2,0.5-3.1s0.9-1.8,1.6-2.5c0.7-0.7,1.5-1.3,2.4-1.7c0.9-0.4,2-0.6,3.1-0.6c1.3,0,2.4,0.2,3.3,0.7
		c1,0.5,1.7,1.2,2.3,2s1,1.8,1.3,2.8c0.3,1.1,0.4,2.2,0.3,3.3L453.9,111.2L453.9,111.2z M460.6,108.6c-0.2-1-0.5-1.8-1-2.4
		s-1.2-0.8-2.2-0.8c-0.7,0-1.2,0.1-1.6,0.3c-0.4,0.2-0.8,0.5-1,0.8c-0.3,0.3-0.4,0.7-0.5,1s-0.2,0.7-0.2,1L460.6,108.6L460.6,108.6z
		"/>
</g>
</svg>
