<?xml version="1.0" encoding="utf-8"?>
<!-- Generator: Adobe Illustrator 26.3.1, SVG Export Plug-In . SVG Version: 6.00 Build 0)  -->
<svg version="1.1" id="Ebene_1" xmlns="http://www.w3.org/2000/svg" xmlns:xlink="http://www.w3.org/1999/xlink" x="0px" y="0px"
	 viewBox="0 0 989.4 349.6" style="enable-background:new 0 0 989.4 349.6;" xml:space="preserve">
<style type="text/css">
	.st0{fill:#FFFFFF;}
</style>
<g>
	<polygon class="st0" points="401.6,178.2 385.6,211.4 370.5,211.4 270.5,0.4 317.5,0.4 	"/>
	<g>
		<path class="st0" d="M143.3,86.5h92.3c-0.3-15.2-5.4-27.2-15.3-36.2c-9.9-8.9-22.2-13.4-36.8-13.4c-17.5,0-31.9,6.4-43.3,19.2
			C128.7,68.9,123,85.5,123,105.6c0,20.9,6.3,37.6,18.7,49.9s28.6,18.4,48.8,18.4c21.3,0,41-8.1,59.2-24l20.7,29.8
			c-23.2,21.8-50.2,32.7-81.2,32.7c-31.4,0-57.5-10.1-78.2-30.4c-20.7-20.4-31-45.5-31-75.6c0-29.8,10.2-55,30.4-75.5
			C130.7,10.3,155.6,0,185.1,0c27,0,49.5,8.9,67.3,26.5c17.7,17.7,26.7,39.9,26.7,66.7c0,8.6-1.1,17.6-3.3,27.3H143.3V86.5z"/>
	</g>
	<polygon class="st0" points="411.7,155.5 389,107.6 438.2,0.5 485.2,0.5 	"/>
	<g>
		<path class="st0" d="M530.4,275c-3.3,6.6-3.9,11.4-1.8,14.1c2.1,2.7,6.5,4.1,13.5,4.1c3.1,0,7.9-0.4,14.3-1.1l-9.3,19
			c-7.5,1.6-14.1,2.4-19.9,2.4c-11.9,0-19.9-3-23.6-9.1c-3.8-6.1-2.8-15.2,3.3-27.5l20.3-41.5h22.5L530.4,275z M564.7,202.5h36.5
			L590,225.6H474.8l11.4-23.1h52.1l15.9-32.7h26.5L564.7,202.5z"/>
		<path class="st0" d="M687.1,215.1c4.2,7.6,2.9,18.4-3.8,32.5L653,311.1h-22.6l31.1-64.8c3.5-7.2,4.2-12.8,2.1-16.6
			c-2.1-3.9-6.5-5.8-13.6-5.8c-10.5,0-22.6,5.2-36.3,15.7l-6.5-13.3c17.7-14.9,35.9-22.4,54.6-22.4
			C674.5,203.8,683,207.6,687.1,215.1 M640.6,269.4h-17c-12.3,0-20.5,4.3-24.7,12.8c-2.2,4.6-2.1,8.1,0.4,10.4
			c2.3,2.4,6.4,3.6,11.9,3.6c5.6,0,11.9-1.5,18.7-4.5l-7.8,16.2c-7.9,3.7-16.4,5.5-25.5,5.5c-10.4,0-17.5-2.8-21.5-8.4
			c-3.9-5.6-3.7-13,0.6-21.9c4.5-9.1,11.5-16.4,21.1-21.8c9.7-5.4,20.3-8.1,32-8.1h19.5L640.6,269.4z"/>
		<path class="st0" d="M821.1,219.4c4.7,10.4,3.5,23.4-3.9,39.1c-7.3,15.8-18.3,29-32.8,39.4c-14.6,10.4-29.2,15.6-44,15.6
			c-9.3,0-16.6-2.1-22-6.6l9.8-20.5c4.7,4.4,10.7,6.6,18.2,6.6c9.2,0,18.3-3.2,27.5-9.8c9-6.4,15.9-14.7,20.6-24.7
			c4.7-9.9,5.5-18.2,2.5-24.6c-3-6.4-9.1-9.6-18.3-9.6c-6.9,0-15,2.2-24.3,6.6l9.7-20.5c9.8-4.5,19.2-6.6,28-6.6
			C806.7,203.8,816.4,209,821.1,219.4 M688,349.6h-22.5l68.3-143.5H756L688,349.6z"/>
	</g>
	<polygon class="st0" points="13.8,263.5 0,292.1 437.6,292.1 450.5,263.5 	"/>
	<polygon class="st0" points="860.9,262.8 847.1,291.5 976.5,291.5 989.4,262.8 	"/>
	<g>
		<path class="st0" d="M854.4,213h1.7c2.1,0,3.8-0.6,3.8-2.3c0-1.4-1.1-2.4-3.4-2.4c-1,0-1.7,0.1-2.1,0.2V213z M854.4,222.1h-3.8
			v-16c1.4-0.3,3.5-0.4,6.2-0.4c3,0,4.4,0.4,5.6,1.2c0.9,0.6,1.5,1.9,1.5,3.5c0,1.7-1.3,3.1-3.3,3.7v0.2c1.6,0.6,2.5,1.8,3,3.9
			c0.4,2.4,0.8,3.4,1.2,4h-4c-0.4-0.6-0.7-2.1-1.3-3.9c-0.3-1.7-1.3-2.5-3.3-2.5h-1.7v6.3H854.4z M844.4,213.7
			c0,7.2,5.3,12.8,12.5,12.8c7,0,12.2-5.6,12.2-12.7c0-7.2-5.2-12.9-12.3-12.9C849.7,200.9,844.4,206.6,844.4,213.7 M873.2,213.7
			c0,9-7.2,16.2-16.4,16.2s-16.5-7.2-16.5-16.2c0-8.9,7.2-16,16.5-16S873.2,204.8,873.2,213.7"/>
	</g>
</g>
</svg>
