<?xml version="1.0" encoding="utf-8"?>
<!-- Generator: Adobe Illustrator 26.3.1, SVG Export Plug-In . SVG Version: 6.00 Build 0)  -->
<svg version="1.1" id="Ebene_1" xmlns="http://www.w3.org/2000/svg" xmlns:xlink="http://www.w3.org/1999/xlink" x="0px" y="0px"
	 viewBox="0 0 431.4 196.4" style="enable-background:new 0 0 431.4 196.4;" xml:space="preserve">
<style type="text/css">
	.st0{fill:#FFFFFF;}
</style>
<rect x="181" y="0" class="st0" width="55.4" height="13.2"/>
<path class="st0" d="M181.1,25.7v100.5c0,0-0.2,7.5,7.8,7.5h47.6v-108H181.1z"/>
<path class="st0" d="M100.6,33.2v34l-45.2,0V25.7H7.8c0,0-7.7-0.4-7.7,7.5l0,92.9v0.1c0,0.9,0.3,7.4,7.8,7.4l47.6,0l0-51.8h45.2
	v44.3c0,0-0.2,7.5,7.8,7.5l47.7,0l0-107.9h-47.7c0,0-0.2,0-0.4,0C106.3,25.7,100.6,26.2,100.6,33.2"/>
<path class="st0" d="M261.4,33.2v92.9c0,0-0.2,7.5,7.8,7.5h47.7V91.5l8-5.1l38.5,40.6c4,4.3,9.6,6.7,15.5,6.7h52.5L361,59.8
	l47.7-34.1H374c-3.3,0-6.5,1.1-9.2,3l-48,34.1V25.7h-47.9C267.7,25.7,261.4,26,261.4,33.2"/>
<g>
	<path class="st0" d="M4.1,195.9l-3.8-20.5h4.8l2.5,13.7l4.1-13.7h5.3l4,13.7l2.5-13.7h4.8l-3.8,20.5h-5.9l-4.3-14.7L10,195.9
		L4.1,195.9L4.1,195.9z"/>
	<path class="st0" d="M44.2,192.2c2,0,4-0.3,6.3-1l0.8,3.9c-2.3,0.9-5.1,1.3-7.5,1.3c-6.4,0-8.7-3-8.7-7.9V183c0-4.3,1.9-8,8.5-8
		s8,3.8,8,8.2v4.4H40.2v1.1C40.2,191.2,41.1,192.2,44.2,192.2L44.2,192.2z M40.2,183.6h6.5v-1c0-1.9-0.6-3.3-3.1-3.3
		s-3.4,1.3-3.4,3.3V183.6z"/>
	<path class="st0" d="M81,188.5v-5.6c0-5.5,2.4-7.9,8.8-7.9c1.4,0,3.5,0.2,5,0.8l-0.6,4.2c-1.4-0.4-3.2-0.6-4.2-0.6
		c-2.9,0-3.8,0.9-3.8,3.4v5.7c0,2.5,0.9,3.4,3.8,3.4c1.3,0,2.8-0.2,4.2-0.6l0.6,4.2c-1.3,0.5-3.3,0.8-5,0.8
		C83.4,196.4,81,194,81,188.5L81,188.5z"/>
	<path class="st0" d="M114.8,179.8c-2,0.9-3.6,1.8-5.4,3v13.2h-5.1v-20.5h4.3l0.3,2.3c1.1-0.8,3.6-2.2,5.4-2.7L114.8,179.8
		L114.8,179.8z"/>
	<path class="st0" d="M131.1,192.2c2,0,4-0.3,6.3-1l0.8,3.9c-2.3,0.9-5.1,1.3-7.5,1.3c-6.4,0-8.7-3-8.7-7.9V183c0-4.3,1.9-8,8.5-8
		s8,3.8,8,8.2v4.4h-11.4v1.1C127.2,191.2,128,192.2,131.1,192.2L131.1,192.2z M127.2,183.6h6.5v-1c0-1.9-0.6-3.3-3.1-3.3
		s-3.4,1.3-3.4,3.3V183.6z"/>
	<path class="st0" d="M163,195.9h-4.2l-0.4-1.4c-1.9,1.2-4,1.8-6.1,1.8c-3.7,0-5.3-2.6-5.3-6.1c0-4.2,1.8-5.8,6-5.8h4.9v-2.1
		c0-2.3-0.6-3.1-3.9-3.1c-1.9,0-3.9,0.2-5.7,0.6l-0.6-3.9c1.9-0.6,4.8-1,7-1c6.4,0,8.3,2.3,8.3,7.4L163,195.9L163,195.9z
		 M157.9,188.2h-3.8c-1.7,0-2.1,0.5-2.1,2c0,1.4,0.5,2.1,2.1,2.1c1.5,0,2.9-0.5,3.9-1.1V188.2L157.9,188.2z"/>
	<path class="st0" d="M184.1,195.6c-1.1,0.5-3.2,0.8-4.5,0.8c-3.7,0-5.6-1.8-5.6-5.4v-11.4h-3.1v-4.1h3.1v-5.1l5.1-0.7v5.8h5.2
		l-0.3,4.1H179v10.7c0,1.1,0.5,1.8,1.9,1.8c0.8,0,1.7-0.2,2.6-0.4L184.1,195.6L184.1,195.6z"/>
	<path class="st0" d="M201,192.2c2,0,4-0.3,6.3-1l0.8,3.9c-2.3,0.9-5.1,1.3-7.5,1.3c-6.4,0-8.6-3-8.6-7.9V183c0-4.3,1.9-8,8.5-8
		s8,3.8,8,8.2v4.4H197v1.1C197,191.2,197.9,192.2,201,192.2L201,192.2z M197,183.6h6.5v-1c0-1.9-0.6-3.3-3.1-3.3s-3.4,1.3-3.4,3.3
		V183.6z"/>
	<path class="st0" d="M245.1,196.4c-2.2,0-5.2-0.5-7.1-1.2l0.7-3.9c1.7,0.5,4,0.9,6.1,0.9c2.3,0,2.6-0.5,2.6-2.1
		c0-1.3-0.2-1.9-3.6-2.7c-5-1.2-5.6-2.5-5.6-6.4s1.8-5.9,7.6-5.9c1.9,0,4.4,0.2,6.1,0.7l-0.5,4.1c-1.6-0.3-4-0.6-5.6-0.6
		c-2.2,0-2.6,0.5-2.6,1.8c0,1.6,0.1,1.8,2.9,2.5c5.7,1.5,6.3,2.3,6.3,6.5C252.5,193.9,251.3,196.4,245.1,196.4L245.1,196.4z"/>
	<path class="st0" d="M269.4,196.4c-7,0-8.9-3.9-8.9-8.1v-5.2c0-4.2,1.9-8.1,8.9-8.1s8.9,3.9,8.9,8.1v5.2
		C278.3,192.5,276.4,196.4,269.4,196.4z M269.4,179.4c-2.7,0-3.8,1.2-3.8,3.5v5.5c0,2.3,1,3.5,3.8,3.5s3.8-1.2,3.8-3.5V183
		C273.2,180.7,272.1,179.4,269.4,179.4z"/>
	<path class="st0" d="M287.1,195.9v-28.8l5.1-0.7v29.5H287.1z"/>
	<path class="st0" d="M306.9,175.5v14.3c0,1.1,0.5,1.6,1.6,1.6c1.3,0,3.5-0.8,5.3-1.7v-14.2h5.1v20.5h-3.9l-0.5-1.7
		c-2.6,1.3-5.8,2.1-8.2,2.1c-3.4,0-4.6-2.4-4.6-6.1v-14.8H306.9L306.9,175.5z"/>
	<path class="st0" d="M339.6,195.6c-1.1,0.5-3.2,0.8-4.5,0.8c-3.7,0-5.6-1.8-5.6-5.4v-11.4h-3.1v-4.1h3.1v-5.1l5.1-0.7v5.8h5.2
		l-0.3,4.1h-4.9v10.7c0,1.1,0.5,1.8,1.9,1.8c0.8,0,1.7-0.2,2.6-0.4L339.6,195.6L339.6,195.6z"/>
	<path class="st0" d="M348.4,172.6v-5.9h5.1v5.9H348.4z M348.4,196v-20.5h5.1V196L348.4,196L348.4,196z"/>
	<path class="st0" d="M372,196.4c-7,0-8.9-3.9-8.9-8.1v-5.2c0-4.2,1.9-8.1,8.9-8.1s8.9,3.9,8.9,8.1v5.2
		C381,192.5,379.1,196.4,372,196.4z M372,179.4c-2.7,0-3.8,1.2-3.8,3.5v5.5c0,2.3,1,3.5,3.8,3.5s3.8-1.2,3.8-3.5V183
		C375.8,180.7,374.8,179.4,372,179.4z"/>
	<path class="st0" d="M401.9,195.9v-14.3c0-1.1-0.5-1.6-1.6-1.6c-1.3,0-3.5,0.8-5.3,1.7v14.2h-5.1v-20.5h3.9l0.5,1.7
		c2.6-1.3,5.8-2.1,8.2-2.1c3.4,0,4.6,2.4,4.6,6.1v14.8H401.9L401.9,195.9z"/>
	<path class="st0" d="M422,196.4c-2.2,0-5.2-0.5-7.1-1.2l0.7-3.9c1.7,0.5,4,0.9,6.1,0.9c2.3,0,2.6-0.5,2.6-2.1
		c0-1.3-0.2-1.9-3.6-2.7c-5-1.2-5.6-2.5-5.6-6.4s1.8-5.9,7.6-5.9c1.9,0,4.4,0.2,6.1,0.7l-0.5,4.1c-1.5-0.3-4-0.6-5.6-0.6
		c-2.2,0-2.6,0.5-2.6,1.8c0,1.6,0.1,1.8,2.9,2.5c5.7,1.5,6.3,2.3,6.3,6.5C429.4,193.9,428.2,196.4,422,196.4L422,196.4z"/>
</g>
</svg>
