<?xml version="1.0" encoding="utf-8"?>
<!-- Generator: Adobe Illustrator 26.3.1, SVG Export Plug-In . SVG Version: 6.00 Build 0)  -->
<svg version="1.1" id="Gestaltung" xmlns="http://www.w3.org/2000/svg" xmlns:xlink="http://www.w3.org/1999/xlink" x="0px" y="0px"
	 viewBox="0 0 116.4 58.3" style="enable-background:new 0 0 116.4 58.3;" xml:space="preserve">
<style type="text/css">
	.st0{fill:#FFFFFF;}
</style>
<g>
	<path class="st0" d="M1,55.9l-1-5.6h1.3L2,54l1.1-3.8h1.5L5.7,54l0.7-3.8h1.3l-1,5.6H5.1l-1.2-4l-1.2,4H1z"/>
	<path class="st0" d="M11,54.9c0.5,0,1.1-0.1,1.7-0.3l0.2,1.1c-0.6,0.2-1.4,0.4-2.1,0.4c-1.8,0-2.4-0.8-2.4-2.2v-1.5
		c0-1.2,0.5-2.2,2.3-2.2s2.2,1,2.2,2.3v1.2H9.9v0.3C9.9,54.6,10.1,54.9,11,54.9z M9.9,52.5h1.8v-0.3c0-0.5-0.2-0.9-0.9-0.9
		s-0.9,0.4-0.9,0.9V52.5z"/>
	<path class="st0" d="M16.8,53.9v-1.5c0-1.5,0.7-2.2,2.4-2.2c0.4,0,1,0.1,1.4,0.2l-0.2,1.2c-0.4-0.1-0.9-0.2-1.2-0.2
		c-0.8,0-1,0.2-1,0.9v1.6c0,0.7,0.2,0.9,1,0.9c0.4,0,0.8,0,1.2-0.2l0.2,1.2C20.2,56,19.7,56,19.2,56C17.5,56,16.8,55.4,16.8,53.9
		L16.8,53.9z"/>
	<path class="st0" d="M24.1,56c-1.9,0-2.5-1.1-2.5-2.2v-1.4c0-1.2,0.5-2.2,2.5-2.2s2.5,1.1,2.5,2.2v1.4C26.5,55,26,56,24.1,56z
		 M24.1,51.4c-0.8,0-1,0.3-1,1v1.5c0,0.6,0.3,1,1,1s1-0.3,1-1v-1.5C25.1,51.7,24.8,51.4,24.1,51.4z"/>
	<path class="st0" d="M31.2,55.9V52c0-0.3-0.1-0.5-0.5-0.5c-0.4,0-1,0.2-1.5,0.5v3.9h-1.4v-5.6h1.1l0.1,0.5c0.7-0.3,1.6-0.6,2.2-0.6
		c0.9,0,1.3,0.7,1.3,1.7v4.1L31.2,55.9L31.2,55.9z"/>
	<path class="st0" d="M37.5,55.9V52c0-0.3-0.1-0.5-0.5-0.5c-0.3,0-1,0.2-1.5,0.5v3.9h-1.4v-5.6h1.1l0.1,0.5c0.7-0.3,1.6-0.6,2.2-0.6
		c0.9,0,1.3,0.7,1.3,1.7v4.1L37.5,55.9L37.5,55.9z"/>
	<path class="st0" d="M42.7,54.9c0.5,0,1.1-0.1,1.7-0.3l0.2,1.1C44,55.9,43.2,56,42.6,56c-1.8,0-2.4-0.8-2.4-2.2v-1.5
		c0-1.2,0.5-2.2,2.3-2.2s2.2,1,2.2,2.3v1.2h-3.1v0.3C41.6,54.6,41.8,54.9,42.7,54.9z M41.6,52.5h1.8v-0.3c0-0.5-0.2-0.9-0.8-0.9
		s-0.9,0.4-0.9,0.9C41.6,52.2,41.6,52.5,41.6,52.5z"/>
	<path class="st0" d="M45.8,53.9v-1.5c0-1.5,0.7-2.2,2.4-2.2c0.4,0,1,0.1,1.4,0.2l-0.2,1.2c-0.4-0.1-0.9-0.2-1.2-0.2
		c-0.8,0-1,0.2-1,0.9v1.6c0,0.7,0.2,0.9,1,0.9c0.4,0,0.8,0,1.2-0.2l0.2,1.2C49.2,56,48.6,56,48.2,56C46.4,56,45.8,55.4,45.8,53.9
		L45.8,53.9z"/>
	<path class="st0" d="M53.8,55.8C53.5,55.9,53,56,52.6,56c-1,0-1.5-0.5-1.5-1.5v-3.1h-0.8v-1.1H51v-1.4l1.4-0.2v1.6h1.4l-0.1,1.1
		h-1.3v3c0,0.3,0.1,0.5,0.5,0.5c0.2,0,0.5,0,0.7-0.1L53.8,55.8L53.8,55.8z"/>
	<path class="st0" d="M59.4,56c-0.6,0-1.4-0.1-1.9-0.3l0.2-1.1c0.5,0.1,1.1,0.2,1.7,0.2c0.6,0,0.7-0.1,0.7-0.6c0-0.3-0.1-0.5-1-0.7
		c-1.4-0.3-1.5-0.7-1.5-1.8s0.5-1.6,2.1-1.6c0.5,0,1.2,0.1,1.7,0.2l-0.1,1.1c-0.4-0.1-1.1-0.2-1.5-0.2c-0.6,0-0.7,0.1-0.7,0.5
		c0,0.5,0,0.5,0.8,0.7c1.6,0.4,1.7,0.6,1.7,1.8C61.5,55.4,61.1,56,59.4,56L59.4,56z"/>
	<path class="st0" d="M65.1,56c-1.9,0-2.5-1.1-2.5-2.2v-1.4c0-1.2,0.5-2.2,2.5-2.2s2.4,1.1,2.4,2.2v1.4C67.5,55,67,56,65.1,56z
		 M65.1,51.4c-0.8,0-1,0.3-1,1v1.5c0,0.6,0.3,1,1,1s1-0.3,1-1v-1.5C66.1,51.7,65.8,51.4,65.1,51.4z"/>
	<path class="st0" d="M68.9,55.9V48l1.4-0.2v8.1C70.3,55.9,68.9,55.9,68.9,55.9z"/>
	<path class="st0" d="M76.1,55.9h-1.2l-0.1-0.4c-0.5,0.3-1.1,0.5-1.7,0.5c-1,0-1.5-0.7-1.5-1.7c0-1.1,0.5-1.6,1.6-1.6h1.3v-0.6
		c0-0.6-0.2-0.8-1.1-0.8c-0.5,0-1.1,0.1-1.6,0.2l-0.2-1.1c0.5-0.2,1.3-0.3,1.9-0.3c1.8,0,2.3,0.6,2.3,2L76.1,55.9L76.1,55.9z
		 M74.6,53.8h-1c-0.5,0-0.6,0.1-0.6,0.5c0,0.4,0.1,0.6,0.6,0.6c0.4,0,0.8-0.1,1.1-0.3C74.6,54.6,74.6,53.8,74.6,53.8z"/>
	<path class="st0" d="M80.4,51.5c-0.5,0.2-1,0.5-1.5,0.8v3.6h-1.4v-5.6h1.2l0.1,0.6c0.3-0.2,1-0.6,1.5-0.7L80.4,51.5L80.4,51.5z"/>
	<path class="st0" d="M86.4,54.9c0.5,0,1.1-0.1,1.7-0.3l0.2,1.1C87.7,55.9,87,56,86.3,56c-1.8,0-2.4-0.8-2.4-2.2v-1.5
		c0-1.2,0.5-2.2,2.3-2.2s2.2,1,2.2,2.3v1.2h-3.1v0.3C85.3,54.6,85.6,54.9,86.4,54.9z M85.3,52.5h1.8v-0.3c0-0.5-0.2-0.9-0.8-0.9
		s-0.9,0.4-0.9,0.9V52.5z"/>
	<path class="st0" d="M93.1,55.9V52c0-0.3-0.1-0.5-0.4-0.5c-0.3,0-1,0.2-1.5,0.5v3.9h-1.4v-5.6h1.1l0.1,0.5c0.7-0.3,1.6-0.6,2.2-0.6
		c0.9,0,1.3,0.7,1.3,1.7v4.1L93.1,55.9L93.1,55.9z"/>
	<path class="st0" d="M98.4,54.9c0.5,0,1.1-0.1,1.7-0.3l0.2,1.1C99.7,55.9,99,56,98.3,56c-1.8,0-2.4-0.8-2.4-2.2v-1.5
		c0-1.2,0.5-2.2,2.3-2.2s2.2,1,2.2,2.3v1.2h-3.1v0.3C97.3,54.6,97.6,54.9,98.4,54.9z M97.3,52.5h1.8v-0.3c0-0.5-0.2-0.9-0.8-0.9
		s-0.9,0.4-0.9,0.9V52.5z"/>
	<path class="st0" d="M104.7,51.5c-0.5,0.2-1,0.5-1.5,0.8v3.6h-1.4v-5.6h1.2l0.1,0.6c0.3-0.2,1-0.6,1.5-0.7L104.7,51.5L104.7,51.5z"
		/>
	<path class="st0" d="M107.3,54.4c-0.2,0.1-0.3,0.3-0.3,0.5c0,0.2,0.1,0.2,0.3,0.2c0.6,0.1,1,0.1,1.6,0.2c0.9,0.1,1.2,0.5,1.2,1.4
		c0,1.2-0.4,1.7-2.5,1.7c-0.7,0-1.5-0.1-2.2-0.3l0.2-1c0.6,0.2,1.2,0.2,1.9,0.2c1.1,0,1.3-0.1,1.3-0.5c0-0.3-0.1-0.4-0.5-0.5
		c-0.7-0.1-0.9-0.1-1.6-0.2c-0.8-0.1-1.1-0.4-1.1-1.1c0-0.5,0.3-0.8,0.6-1c-0.5-0.3-0.8-0.8-0.8-1.5V52c0-1.2,0.6-1.9,2.3-1.9
		c0.4,0,0.7,0,1,0.1h1.7V51c-0.2,0.1-0.4,0.1-0.6,0.2c0.1,0.2,0.2,0.5,0.2,0.9v0.5c0,1.1-0.7,1.8-2.3,1.8
		C107.5,54.4,107.4,54.4,107.3,54.4L107.3,54.4z M107.6,51.3c-0.7,0-0.9,0.2-0.9,0.8v0.4c0,0.5,0.3,0.8,0.9,0.8s0.9-0.2,0.9-0.8
		v-0.4C108.6,51.6,108.3,51.3,107.6,51.3z"/>
	<path class="st0" d="M114.5,55.9l-0.8,2.3h-1.3l0.7-2.3h-0.5l-1.8-5.6h1.4l1.3,4.3l1.3-4.3h1.4L114.5,55.9L114.5,55.9z"/>
</g>
<rect x="54" y="0" class="st0" width="15.8" height="3.8"/>
<g>
	<path class="st0" d="M105.2,20.4c-2.9-0.7-8.4-1.9-8.4-1.9c-3.2-0.7-4.9-1.8-4.9-3.8c0-1.8,1.7-3,4.5-3c3.7,0,3.6,2.4,3.9,3.6
		s1.3,1.4,2.2,1.4h12.2c-0.6-6.2-5-9.5-18.2-9.5c-12,0-19.4,3.8-19.4,9.5c0,5.2,5.4,6.5,10.4,7.7l8.6,2c1.7,0.4,4.8,1.6,4.8,3.9
		c0,1.8,0,3.3-4.6,3.3c-3.5,0-3.7-1.5-4.3-3.3c-0.7-1.9-1.8-2.1-3-2.1H77.3c0,5.4,2.8,10.1,19,10.1c14.5,0,20.1-4,20.1-9.7
		S110.5,21.7,105.2,20.4L105.2,20.4z"/>
	<path class="st0" d="M54,7.3V36c0,0,0,2.2,2.2,2.2h13.6V7.3H54L54,7.3z"/>
	<path class="st0" d="M28.8,9.5v9.7H15.8V7.3H2.2c0,0-2.2-0.1-2.2,2.2v26.6c0,0.2,0.1,2.1,2.2,2.1h13.6V23.4h12.9V36
		c0,0,0,2.2,2.2,2.2h13.6V7.3H31c0,0,0,0-0.1,0C30.4,7.3,28.8,7.5,28.8,9.5"/>
</g>
</svg>
