<?xml version="1.0" encoding="utf-8"?>
<!-- Generator: Adobe Illustrator 26.3.1, SVG Export Plug-In . SVG Version: 6.00 Build 0)  -->
<svg version="1.1" id="Ebene_1" xmlns="http://www.w3.org/2000/svg" xmlns:xlink="http://www.w3.org/1999/xlink" x="0px" y="0px"
	 viewBox="0 0 277.8 86" style="enable-background:new 0 0 277.8 86;" xml:space="preserve">
<style type="text/css">
	.st0{fill:#FFFFFF;}
</style>
<path class="st0" d="M93.2,11c-17.7,0-32,14.3-32,32s14.3,32,32,32s32-14.3,32-32S110.9,11,93.2,11 M93.2,64.6
	c-11.8,0-21.3-9.6-21.3-21.5s9.5-21.5,21.3-21.5s21.3,9.6,21.3,21.5S104.9,64.6,93.2,64.6 M182.6,73h-14.2l0,0l-19.3-25.5l-8.4,9.4
	V73h-10.4V13.1h10.3v28.4l25.5-28.4H180l-23.4,26.2L182.6,73z M39.7,13.1L0.4,73h12.5l8.4-12.9h24.8V73h10.3V13.1H39.7z M27.4,50.7
	l18.7-28.6v28.6H27.4z"/>
<path class="st0" d="M245.6,50.3c1.9,1.9,4.4,2.9,7,2.9c1.7,0,3.4-0.4,4.9-1.3c4.3-2.5,4.7-6.5,7.1-15.4c-5.8-1.5-9.4-2.8-12.4-2.8
	c-1.6,0-3.1,0.4-4.6,1.2c-4.1,2.4-5.7,7-4.5,11.2l-5.8,3.4V35.4c4.2-1,7.5-4.8,7.5-9.5c0-5-3.3-7.4-9.8-13.9
	c-6.5,6.5-9.8,8.9-9.8,13.9c0,4.5,3.1,8.5,7.5,9.5v14.1l-5.8-3.4c1.2-4.1-0.4-8.8-4.5-11.2c-1.5-0.9-3-1.2-4.6-1.2
	c-3,0-6.6,1.3-12.4,2.8c2.4,8.9,2.8,12.9,7.1,15.4c1.5,0.9,3.2,1.3,4.9,1.3c2.6,0,5.1-1,7-2.9l8.3,4.8V62h-20.2v4.7h45.1V62h-20.2
	v-6.9L245.6,50.3z M247.7,42.2c0.3-1.3,1.2-2.4,2.4-3.1c0.8-0.4,1.4-0.6,2.2-0.6c1.5,0,3.7,0.6,6.6,1.4c-1.5,5.7-2,7.1-3.8,8.1
	c-0.8,0.4-1.7,0.7-2.6,0.7c-1.9,0-3.5-1-4.4-2.6C247.5,44.9,247.3,43.5,247.7,42.2z M221.8,46c-0.9,1.6-2.6,2.6-4.4,2.6
	c-0.9,0-1.8-0.2-2.6-0.7c-1.7-1-2.3-2.4-3.8-8.1c2.9-0.8,5.1-1.4,6.6-1.4c0.8,0,1.5,0.2,2.2,0.6C222.4,40.4,223.3,43.6,221.8,46z
	 M235,31c-2.8,0-5.1-2.3-5.1-5.1c0-2,0.9-3.2,5.1-7.3c4.2,4.1,5.1,5.3,5.1,7.3C240.1,28.7,237.8,31,235,31z"/>
<path class="st0" d="M235,0.1c-23.7,0-42.9,19.2-42.9,42.9s19.2,42.9,42.9,42.9c23.7,0.1,43-19.2,43-42.9S258.7,0.1,235,0.1z
	 M235,81.2c-21.1,0-38.2-17.1-38.2-38.2c0-21,17.2-38.2,38.2-38.2c21.1,0,38.2,17.1,38.2,38.2S256.1,81.2,235,81.2z"/>
</svg>
