<?xml version="1.0" encoding="utf-8"?>
<!-- Generator: Adobe Illustrator 26.3.1, SVG Export Plug-In . SVG Version: 6.00 Build 0)  -->
<svg version="1.1" id="Ebene_1" xmlns="http://www.w3.org/2000/svg" xmlns:xlink="http://www.w3.org/1999/xlink" x="0px" y="0px"
	 viewBox="0 0 198.9 62" style="enable-background:new 0 0 198.9 62;" xml:space="preserve">
<style type="text/css">
	.st0{fill:#FFFFFF;}
</style>
<path class="st0" d="M79.6,37.2c2-0.3,4.7-0.7,7.8-0.9l4.2-19.9h-6.2c-0.8,0-1.5,0.6-1.7,1.4L82,26.2h-0.1C81.7,23.9,80,23,77.8,23
	c-3.5,0-6.4,2-8.4,7.6h-5.2l-1.2,5.5h5l-0.3,1.7c-0.8,6.1,0.4,9,4.8,9c2.7,0,4.5-1.2,6-3.7h0.1L78,46.3h7.3l1.7-8
	c-2.4-0.3-4.9-0.5-7.5-0.5c-0.7,2.6-1.4,3.5-2.8,3.5c-1.8,0-1.8-1.4-0.8-6.3c1.1-4.9,1.7-6.4,3.5-6.4s1.8,1.4,0.8,6.4
	C79.9,35.8,79.8,36.5,79.6,37.2L79.6,37.2z"/>
<path class="st0" d="M134.6,17.7l-6.1,28.6h7.6l6.4-30h-6.2C135.4,16.4,134.7,16.9,134.6,17.7L134.6,17.7z"/>
<path class="st0" d="M159.2,30.2c1-4.8-1.3-7.1-7-7.1c-6.1,0-9.7,3.1-10.6,7.1c-1.9,8.6,9.7,6.2,8.8,10.3c-0.2,1.2-1.4,1.9-2.6,1.9
	c-0.7,0-1.1-0.3-1.4-0.8c-0.2-0.5-0.2-1.3,0-2.2h-6.6c-1.1,5,0.9,7.7,7.3,7.7c5.7,0,9.8-3.2,10.7-7.6c1.9-8.7-9.6-6.2-8.8-9.9
	c0.2-1.1,1.2-1.8,2.3-1.8c1.3,0,1.9,0.6,1.5,2.5L159.2,30.2L159.2,30.2z"/>
<path class="st0" d="M14.5,31.4c0.4-1.9,0-2.7-1.3-2.7s-2,0.8-2.4,2.7l-3.2,15H0l4.5-21.1c0.2-1,1.1-1.7,2.1-1.7h5.6l-0.6,2.8h0.1
	c1.4-2.2,3.6-3.4,6.2-3.4c3.1,0,4.4,1.2,4.8,3.5c1.7-2.6,4.2-3.5,6.5-3.5c3.3,0,5.6,1.3,4.6,6.2l-3.7,17.1h-7.6l3.2-15
	c0.4-1.9,0-2.7-1.3-2.7s-2,0.8-2.4,2.7l-3.2,15h-7.6L14.5,31.4L14.5,31.4z"/>
<path class="st0" d="M43.8,46.4c-0.1-0.8,0-1.6,0.1-2.6h-0.1c-1.3,2-3.5,3.2-5.8,3.2c-4.5,0-5.7-2.8-4.9-6.7
	c0.9-4.2,2.8-6.2,7.9-7.3l3.1-0.7c1.7-0.4,2.5-1.1,2.8-2.5s-0.2-2.1-1.5-2.1c-1.4,0-2.3,0.6-2.8,3H36c1.4-6.5,6.9-7.6,10.3-7.6
	c5.3,0,8.7,1.4,7.4,7.3l-2.3,11.1c-0.5,2.1-0.7,3.7-0.3,4.9L43.8,46.4L43.8,46.4z M45,38.1l0.5-2.7h-0.1C45,36,44,36,42.7,36.5
	c-1.3,0.5-1.8,1.4-2.2,2.9c-0.3,1.5,0.2,2.5,1.3,2.5C43.6,41.9,44.5,40.6,45,38.1z"/>
<g>
	<path class="st0" d="M66.9,57.3c0.1-0.6,0-0.8-0.4-0.8s-0.6,0.2-0.7,0.8l-0.9,4.5h-2.3l1.4-6.8h2.2l-0.2,0.8h0c0.4-0.7,1.1-1,1.9-1
		c0.9,0,1.3,0.3,1.4,1c0.5-0.8,1.2-1,1.9-1c1,0,1.7,0.4,1.4,1.8l-1.1,5.1h-2.3l0.9-4.5c0.1-0.6,0-0.8-0.4-0.8s-0.6,0.2-0.7,0.8
		l-0.9,4.5H66L66.9,57.3L66.9,57.3z"/>
	<path class="st0" d="M75.7,61.8c0-0.2,0-0.5,0-0.8h0C75.4,61.6,74.7,62,74,62c-1.3,0-1.7-0.8-1.4-2c0.3-1.2,0.8-1.8,2.3-2.2
		l0.9-0.2c0.5-0.1,0.7-0.3,0.8-0.7c0.1-0.4-0.1-0.6-0.4-0.6c-0.4,0-0.7,0.2-0.8,0.9h-2c0.4-1.9,2.1-2.3,3.1-2.3
		c1.6,0,2.6,0.4,2.2,2.2L78,60.3c-0.1,0.6-0.2,1.1-0.1,1.5L75.7,61.8L75.7,61.8z M76.1,59.3l0.2-0.8h0c-0.2,0.2-0.5,0.2-0.8,0.3
		c-0.4,0.2-0.6,0.4-0.7,0.9c-0.1,0.5,0.1,0.7,0.4,0.7C75.7,60.5,76,60.1,76.1,59.3L76.1,59.3z"/>
	<path class="st0" d="M80.9,59.7c-0.1,0.3-0.1,0.5,0,0.7c0.1,0.2,0.2,0.2,0.4,0.2c0.3,0,0.7-0.2,0.8-0.6c0.3-1.2-3.2-0.5-2.6-3.1
		c0.2-1.2,1.3-2.1,3.2-2.1c1.7,0,2.4,0.7,2.1,2.1h-2c0.1-0.6-0.1-0.8-0.4-0.8c-0.3,0-0.6,0.2-0.7,0.5c-0.2,1.1,3.2,0.4,2.6,3
		C84,61,82.8,62,81.1,62c-1.9,0-2.5-0.8-2.2-2.3H80.9L80.9,59.7z"/>
	<path class="st0" d="M88.8,57.7c0.1-0.5,0.1-0.9,0.1-1.1c-0.1-0.2-0.2-0.3-0.4-0.3c-0.5,0-0.8,0.5-1.1,2.1
		c-0.3,1.7-0.3,2.1,0.2,2.1c0.4,0,0.7-0.3,0.9-1.1l0.1-0.4h2c-0.2,1.1-0.6,1.8-1.1,2.3c-0.5,0.5-1.3,0.7-2.2,0.7
		c-1.7,0-2.8-0.5-2.2-3.5c0.7-3.2,2.1-3.7,3.8-3.7c2,0,2.3,1.1,2,2.8L88.8,57.7L88.8,57.7z"/>
	<path class="st0" d="M92.4,52.8h2.3l-0.6,2.9h0c0.5-0.7,1.2-0.9,1.8-0.9c0.9,0,1.7,0.4,1.4,1.8l-1.1,5.1h-2.3l0.9-4.5
		c0.1-0.6,0-0.8-0.4-0.8s-0.6,0.2-0.7,0.8l-0.9,4.5h-2.3L92.4,52.8L92.4,52.8z"/>
	<path class="st0" d="M98.5,55h2.3l-1.4,6.8h-2.3L98.5,55z M99,52.8h2.3l-0.4,1.7h-2.3L99,52.8z"/>
	<path class="st0" d="M101.7,55h2.2l-0.2,0.8h0c0.4-0.7,1.1-1,1.9-1c1,0,1.7,0.4,1.4,1.8l-1.1,5.1h-2.3l0.9-4.5
		c0.1-0.6,0-0.8-0.4-0.8s-0.6,0.2-0.7,0.8l-0.9,4.5h-2.3L101.7,55L101.7,55z"/>
	<path class="st0" d="M109.5,58.8l-0.2,0.9c-0.2,0.7,0.1,0.9,0.4,0.9c0.4,0,0.7-0.2,0.9-1.2h2c-0.2,0.8-0.5,1.5-1,1.9
		c-0.5,0.4-1.2,0.7-2.2,0.7c-2.2,0-2.7-1-2.1-3.6c0.6-2.6,1.6-3.6,3.7-3.6c1.8,0,2.6,0.8,2,3.3l-0.2,0.7L109.5,58.8L109.5,58.8z
		 M111.1,57.3c0.2-0.7,0.1-1-0.4-1s-0.7,0.3-0.8,1l-0.1,0.3h1.2L111.1,57.3z"/>
	<path class="st0" d="M114.3,55h2.2l-0.2,0.8h0c0.4-0.7,1.1-1,1.9-1c1,0,1.7,0.4,1.4,1.8l-1.1,5.1h-2.3l0.9-4.5
		c0.1-0.6,0-0.8-0.4-0.8s-0.6,0.2-0.7,0.8l-0.9,4.5h-2.3L114.3,55L114.3,55z"/>
	<path class="st0" d="M121.3,52.8h2.3l-0.6,2.9h0c0.5-0.7,1.2-0.9,1.8-0.9c0.9,0,1.7,0.4,1.4,1.8l-1.1,5.1h-2.3l0.9-4.5
		c0.1-0.6,0-0.8-0.4-0.8s-0.6,0.2-0.7,0.8l-0.9,4.5h-2.3L121.3,52.8L121.3,52.8z"/>
	<path class="st0" d="M129.2,61.8c0-0.2,0-0.5,0-0.8h0c-0.4,0.6-1.1,0.9-1.7,0.9c-1.3,0-1.7-0.8-1.4-2c0.3-1.2,0.8-1.8,2.3-2.2
		l0.9-0.2c0.5-0.1,0.7-0.3,0.8-0.7s-0.1-0.6-0.4-0.6c-0.4,0-0.7,0.2-0.8,0.9h-2c0.4-1.9,2.1-2.3,3.1-2.3c1.6,0,2.6,0.4,2.2,2.2
		l-0.7,3.3c-0.1,0.6-0.2,1.1-0.1,1.5L129.2,61.8L129.2,61.8z M129.6,59.3l0.2-0.8h0c-0.1,0.2-0.5,0.2-0.8,0.3
		c-0.4,0.2-0.6,0.4-0.6,0.9c-0.1,0.5,0.1,0.7,0.4,0.7C129.1,60.5,129.4,60.1,129.6,59.3L129.6,59.3z"/>
	<path class="st0" d="M133.6,55h2.2l-0.2,0.8h0c0.4-0.7,1.1-1,1.9-1c1,0,1.7,0.4,1.4,1.8l-1.1,5.1h-2.3l0.9-4.5
		c0.1-0.6,0-0.8-0.4-0.8s-0.6,0.2-0.7,0.8l-0.9,4.5h-2.3L133.6,55L133.6,55z"/>
	<path class="st0" d="M143.9,52.8h2.3l-1.9,9h-2.2l0.2-0.9h0c-0.4,0.8-1,1.1-1.8,1.1c-1.5,0-1.8-1.2-1.2-3.7
		c0.5-2.6,1.6-3.4,2.8-3.4c0.6,0,1.1,0.2,1.2,0.9h0L143.9,52.8L143.9,52.8z M141.7,60.3c0.5,0,0.7-0.4,1-1.9
		c0.3-1.5,0.3-1.9-0.2-1.9s-0.7,0.4-1,1.9C141.1,59.9,141.2,60.3,141.7,60.3L141.7,60.3z"/>
	<path class="st0" d="M147.9,58.8l-0.2,0.9c-0.1,0.7,0.1,0.9,0.4,0.9c0.4,0,0.7-0.2,0.9-1.2h2c-0.2,0.8-0.5,1.5-1,1.9
		c-0.5,0.4-1.2,0.7-2.2,0.7c-2.2,0-2.7-1-2.1-3.6c0.6-2.6,1.6-3.6,3.6-3.6c1.8,0,2.6,0.8,2,3.3l-0.1,0.7L147.9,58.8L147.9,58.8z
		 M149.5,57.3c0.1-0.7,0.1-1-0.4-1s-0.7,0.3-0.8,1l-0.1,0.3h1.2L149.5,57.3L149.5,57.3z"/>
	<path class="st0" d="M153.2,52.8h2.3l-1.9,9h-2.3L153.2,52.8z"/>
</g>
<path class="st0" d="M97.4,42.3c-1.1,0-1.9-0.6-1.4-3.1l0.6-3h11.2l0.5-2.3c1.7-8.2-0.8-10.9-6.8-10.9c-6.8,0-10.4,3.3-12.2,12
	C87.6,43.7,89.2,47,96.5,47c3.2,0,5.5-0.8,7.2-2.2c1.8-1.5,2.8-3.4,3.4-6.1l-6.8-0.2C99.8,41.5,98.8,42.3,97.4,42.3L97.4,42.3z
	 M97.8,31.2c0.5-2.4,1.3-3.5,2.8-3.5s1.8,1.1,1.3,3.5l-0.2,1h-4.2C97.6,32.2,97.8,31.2,97.8,31.2z"/>
<path class="st0" d="M128.9,30.4c1.3-5.9-2.1-7.3-7.4-7.3c-3.4,0-8.9,1.1-10.3,7.6h6.6c0.6-2.4,1.4-3,2.8-3c1.3,0,1.8,0.7,1.5,2.1
	c-0.3,1.4-1.1,2.1-2.8,2.5l-3.1,0.7c-5.1,1.1-7,3.1-7.9,7.3c-0.8,3.9,0.3,6.7,4.9,6.7c2.3,0,4.5-1.1,5.8-3.2h0.1
	c-0.1,0.9-0.2,1.8-0.1,2.6h7.3c-0.4-1.2-0.1-2.8,0.3-4.9L128.9,30.4L128.9,30.4z M120.2,38.1c-0.6,2.5-1.5,3.7-3.2,3.7
	c-1.1,0-1.6-1-1.3-2.5c0.3-1.5,0.9-2.4,2.2-2.9c1.2-0.5,2.3-0.5,2.8-1h0.1L120.2,38.1L120.2,38.1z"/>
<path class="st0" d="M58.5,23.6H66l-4.8,22.7h-7.6L58.5,23.6L58.5,23.6z M61.4,16.4h6.2L66.4,22h-7.6l0.9-4.3
	C59.9,16.9,60.6,16.4,61.4,16.4L61.4,16.4z"/>
<path class="st0" d="M127.6,0.6c0,0,40.6-5.6,71.3,18.8h-13.8C185.2,19.4,161,1.1,127.6,0.6"/>
<path class="st0" d="M144.5,7.3c0,0,25.1,4.6,39.8,17.5l-2.4,10.2C181.9,34.9,167.3,15.5,144.5,7.3"/>
</svg>
