<?xml version="1.0" encoding="utf-8"?>
<!-- Generator: Adobe Illustrator 26.3.1, SVG Export Plug-In . SVG Version: 6.00 Build 0)  -->
<svg version="1.1" id="Ebene_1" xmlns="http://www.w3.org/2000/svg" xmlns:xlink="http://www.w3.org/1999/xlink" x="0px" y="0px"
	 viewBox="0 0 264 73" style="enable-background:new 0 0 264 73;" xml:space="preserve">
<style type="text/css">
	.st0{fill:#FFFFFF;}
</style>
<g>
	<path class="st0" d="M261.7,55.4l-4.3-5.3h-1.8v9.4h2.3v-5.3l4.3,5.3h1.8v-9.4h-2.3V55.4z M254.2,59.5v-1.9h-4.3v-1.9h4v-1.9h-4V52
		h4.3v-1.9h-6.7v9.4H254.2z M243.4,55.4l-4.3-5.3h-1.8v9.4h2.3v-5.3l4.3,5.3h1.8v-9.4h-2.4L243.4,55.4L243.4,55.4z M235.5,50.1h-2.5
		v9.4h2.5V50.1z M228.9,53.7H225v-3.7h-2.4v9.4h2.4v-3.8h3.8v3.8h2.4v-9.4h-2.4V53.7z M218,59.6c0.6,0,1.2-0.1,1.8-0.3
		c0.6-0.2,1-0.4,1.4-0.8l-0.8-1.8c-0.8,0.6-1.6,0.8-2.4,0.8c-0.8,0-1.3-0.2-1.8-0.7s-0.6-1.2-0.6-2.2s0.2-1.7,0.6-2.1s1-0.7,1.8-0.7
		c0.8,0,1.6,0.3,2.4,0.8l0.8-1.8c-0.4-0.3-0.8-0.6-1.4-0.8c-0.6-0.2-1.2-0.3-1.8-0.3c-1,0-1.8,0.2-2.6,0.6s-1.3,1-1.7,1.7
		s-0.6,1.6-0.6,2.5s0.2,1.8,0.6,2.5s0.9,1.3,1.7,1.7S217.1,59.6,218,59.6 M207.9,59.6c1.3,0,2.3-0.3,3-0.8c0.7-0.5,1.1-1.2,1.1-2.2
		c0-0.5-0.1-0.9-0.3-1.2s-0.6-0.7-1-0.9c-0.5-0.3-1.2-0.5-2-0.7c-0.5-0.1-0.9-0.2-1.2-0.3c-0.3-0.1-0.4-0.2-0.5-0.3
		c-0.1-0.1-0.1-0.2-0.1-0.4c0-0.3,0.1-0.5,0.4-0.7c0.3-0.2,0.6-0.3,1.1-0.3s0.9,0.1,1.4,0.2c0.5,0.2,0.9,0.4,1.3,0.7l0.8-1.8
		c-0.4-0.3-0.9-0.6-1.5-0.8s-1.3-0.3-2-0.3c-0.8,0-1.4,0.1-2,0.4s-1.1,0.6-1.4,1.1c-0.3,0.5-0.5,1-0.5,1.6c0,0.5,0.1,0.9,0.3,1.3
		s0.6,0.7,1,0.9c0.5,0.3,1.2,0.5,2.1,0.7c0.7,0.2,1.2,0.3,1.4,0.5c0.3,0.2,0.4,0.3,0.4,0.6c0,0.3-0.1,0.5-0.4,0.6
		c-0.3,0.2-0.7,0.2-1.2,0.2s-1-0.1-1.6-0.2c-0.5-0.2-1-0.4-1.5-0.7l-0.8,1.8c0.4,0.3,1,0.6,1.7,0.8
		C206.5,59.5,207.2,59.6,207.9,59.6 M198.7,52.7l1.3,3h-2.6L198.7,52.7L198.7,52.7z M204,59.5l-4.4-9.4h-2l-4.4,9.4h2.5l0.8-2h4.2
		l0.8,2H204z M187.8,56.5l-2.8-6.4h-1.9v9.4h2.2v-4.3l1.8,4.3h1.6l1.8-4.3v4.3h2.2v-9.4h-1.9L187.8,56.5L187.8,56.5z M177.7,59.5
		v-3.8h3.9v-1.9h-3.9V52h4.1v-2h-6.6v9.4C175.2,59.5,177.7,59.5,177.7,59.5z M173.5,50.1H171v9.4h2.5V50.1z M169.6,59.5v-1.9h-4.3
		v-1.9h4v-1.9h-4V52h4.3v-1.9h-6.7v9.4H169.6z M161.7,59.5v-2h-4v-7.4h-2.5v9.4H161.7L161.7,59.5z M151,53.7h-3.8v-3.7h-2.4v9.4h2.4
		v-3.8h3.8v3.8h2.4v-9.4H151V53.7z M140.2,59.6c0.6,0,1.2-0.1,1.8-0.3c0.6-0.2,1-0.4,1.4-0.8l-0.8-1.8c-0.8,0.6-1.6,0.8-2.4,0.8
		c-0.8,0-1.3-0.2-1.8-0.7c-0.4-0.5-0.6-1.2-0.6-2.2s0.2-1.7,0.6-2.1s1-0.7,1.8-0.7c0.8,0,1.6,0.3,2.4,0.8l0.8-1.8
		c-0.4-0.3-0.8-0.6-1.4-0.8c-0.6-0.2-1.2-0.3-1.8-0.3c-1,0-1.8,0.2-2.6,0.6c-0.7,0.4-1.3,1-1.7,1.7s-0.6,1.6-0.6,2.5
		s0.2,1.8,0.6,2.5s0.9,1.3,1.7,1.7S139.2,59.6,140.2,59.6 M130,59.6c1.3,0,2.3-0.3,3-0.8c0.7-0.5,1.1-1.2,1.1-2.2
		c0-0.5-0.1-0.9-0.3-1.2s-0.6-0.7-1-0.9c-0.5-0.3-1.2-0.5-2-0.7c-0.5-0.1-0.9-0.2-1.2-0.3c-0.3-0.1-0.4-0.2-0.5-0.3
		c-0.1-0.1-0.1-0.2-0.1-0.4c0-0.3,0.1-0.5,0.4-0.7c0.3-0.2,0.6-0.3,1.1-0.3s0.9,0.1,1.4,0.2c0.5,0.2,0.9,0.4,1.3,0.7l0.8-1.8
		c-0.4-0.3-0.9-0.6-1.5-0.8s-1.3-0.3-2-0.3c-0.8,0-1.4,0.1-2,0.4c-0.6,0.3-1.1,0.6-1.4,1.1c-0.3,0.5-0.5,1-0.5,1.6
		c0,0.5,0.1,0.9,0.3,1.3c0.2,0.3,0.6,0.7,1,0.9s1.2,0.5,2.1,0.7c0.7,0.2,1.2,0.3,1.4,0.5c0.3,0.2,0.4,0.3,0.4,0.6
		c0,0.3-0.1,0.5-0.4,0.6c-0.3,0.2-0.7,0.2-1.2,0.2s-1-0.1-1.6-0.2c-0.5-0.2-1-0.4-1.5-0.7l-0.8,1.8c0.4,0.3,1,0.6,1.7,0.8
		C128.6,59.5,129.3,59.6,130,59.6 M118.7,57.5V52h1.2c1.8,0,2.7,0.9,2.7,2.7c0,0.9-0.2,1.6-0.7,2.1c-0.4,0.5-1.1,0.7-2.1,0.7
		C119.9,57.5,118.7,57.5,118.7,57.5z M116.2,59.5h3.8c1.1,0,1.9-0.2,2.7-0.6c0.8-0.4,1.3-0.9,1.7-1.6c0.4-0.7,0.6-1.6,0.6-2.5
		s-0.2-1.8-0.6-2.5s-1-1.2-1.7-1.6c-0.8-0.4-1.7-0.6-2.7-0.6h-3.8C116.2,50.1,116.2,59.5,116.2,59.5z M112.1,55.4l-4.3-5.3H106v9.4
		h2.3v-5.3l4.3,5.3h1.8v-9.4h-2.3L112.1,55.4L112.1,55.4z M100.1,59.6c1.3,0,2.4-0.3,3.1-1s1.1-1.7,1.1-3V50h-2.4v5.5
		c0,0.7-0.2,1.2-0.4,1.6c-0.3,0.4-0.7,0.5-1.3,0.5s-1-0.2-1.3-0.5s-0.5-0.9-0.5-1.6v-5.5h-2.4v5.5c0,1.3,0.3,2.4,1.1,3
		S98.8,59.6,100.1,59.6 M90.5,54h-1.6v-2h1.6c0.5,0,0.9,0.1,1.2,0.2c0.2,0.2,0.3,0.4,0.3,0.8s-0.1,0.6-0.4,0.8S91,54,90.5,54
		 M93.6,56.7c-0.1-0.3-0.3-0.6-0.5-0.8c-0.2-0.2-0.4-0.3-0.7-0.4c0.6-0.2,1.1-0.5,1.4-1c0.3-0.5,0.5-1,0.5-1.7
		c0-0.9-0.3-1.6-0.9-2.1c-0.6-0.5-1.4-0.7-2.6-0.7h-4.4v9.4h2.4v-3.7h0.9c0.5,0,0.8,0.2,1,0.5l1.2,3.1h2.6L93.6,56.7L93.6,56.7z"/>
	<path class="st0" d="M175.2,39.5H171v1.8h4.3V39.5z M165.2,44.1c1.3,0,2.3-0.3,3-0.8c0.7-0.5,1.1-1.2,1.1-2.2
		c0-0.5-0.1-0.9-0.3-1.2s-0.6-0.7-1-0.9c-0.5-0.3-1.2-0.5-2-0.7c-0.5-0.1-0.9-0.2-1.2-0.3c-0.3-0.1-0.4-0.2-0.5-0.3
		c-0.1-0.1-0.1-0.2-0.1-0.4c0-0.3,0.1-0.5,0.4-0.7c0.3-0.2,0.6-0.3,1.1-0.3s0.9,0.1,1.4,0.2c0.5,0.2,0.9,0.4,1.3,0.7l0.8-1.8
		c-0.4-0.3-0.9-0.6-1.5-0.8s-1.3-0.3-2-0.3c-0.8,0-1.4,0.1-2,0.4s-1.1,0.6-1.4,1.1c-0.3,0.5-0.5,1-0.5,1.6c0,0.5,0.1,0.9,0.3,1.3
		s0.6,0.7,1,0.9c0.5,0.3,1.2,0.5,2.1,0.7c0.7,0.2,1.2,0.3,1.4,0.5s0.4,0.3,0.4,0.6c0,0.3-0.1,0.5-0.4,0.6c-0.3,0.2-0.7,0.2-1.2,0.2
		s-1-0.1-1.6-0.2c-0.5-0.2-1-0.4-1.5-0.7l-0.8,1.8c0.4,0.3,1,0.6,1.7,0.8C163.9,44.1,164.6,44.2,165.2,44.1 M157.7,39.9l-4.3-5.3
		h-1.8V44h2.3v-5.3l4.3,5.3h1.8v-9.4h-2.3L157.7,39.9L157.7,39.9z M145.4,42.3c-0.7,0-1.3-0.2-1.7-0.8c-0.4-0.5-0.6-1.2-0.6-2.2
		s0.2-1.7,0.6-2.2c0.4-0.5,0.9-0.7,1.7-0.7s1.3,0.2,1.7,0.8c0.4,0.5,0.6,1.2,0.6,2.2s-0.2,1.7-0.6,2.2
		C146.6,42,146.1,42.3,145.4,42.3 M145.4,44.2c1,0,1.8-0.2,2.5-0.6c0.7-0.4,1.3-1,1.6-1.7s0.6-1.6,0.6-2.6s-0.2-1.8-0.6-2.6
		c-0.4-0.7-0.9-1.3-1.6-1.7c-0.7-0.4-1.6-0.6-2.5-0.6s-1.8,0.2-2.5,0.6c-0.7,0.4-1.3,1-1.6,1.7c-0.4,0.7-0.6,1.6-0.6,2.6
		s0.2,1.8,0.6,2.6c0.4,0.7,0.9,1.3,1.6,1.7S144.4,44.2,145.4,44.2 M139.1,34.6h-2.5V44h2.5V34.6z M131.1,44.2c1.3,0,2.3-0.3,3-0.8
		c0.7-0.5,1.1-1.2,1.1-2.2c0-0.5-0.1-0.9-0.3-1.2s-0.6-0.7-1-0.9c-0.5-0.3-1.2-0.5-2-0.7c-0.5-0.1-0.9-0.2-1.2-0.3
		c-0.3-0.1-0.4-0.2-0.5-0.3c-0.1-0.1-0.1-0.2-0.1-0.4c0-0.3,0.1-0.5,0.4-0.7c0.3-0.2,0.6-0.3,1.1-0.3s0.9,0.1,1.4,0.2
		c0.5,0.2,0.9,0.4,1.3,0.7l0.8-1.8c-0.4-0.3-0.9-0.6-1.5-0.8s-1.3-0.3-2-0.3c-0.8,0-1.4,0.1-2,0.4s-1.1,0.6-1.4,1.1
		c-0.3,0.5-0.5,1-0.5,1.6c0,0.5,0.1,0.9,0.3,1.3s0.5,0.7,1,0.9s1.2,0.5,2.1,0.7c0.7,0.2,1.2,0.3,1.4,0.5s0.4,0.3,0.4,0.6
		c0,0.3-0.1,0.5-0.4,0.6c-0.3,0.2-0.7,0.2-1.2,0.2s-1-0.1-1.6-0.2c-0.5-0.2-1-0.4-1.5-0.7l-0.8,1.8c0.4,0.3,1,0.6,1.7,0.8
		C129.7,44.1,130.4,44.2,131.1,44.2 M125.9,34.6h-2.5V44h2.5V34.6z M121.9,36.4v-1.8H115v2h4.2l-4.2,5.7V44h7.1v-2h-4.4
		C117.7,42.1,121.9,36.4,121.9,36.4z M109.5,33.8h2.1v-2h-2.1V33.8z M106.8,33.8h2.1v-2h-2.1V33.8z M109.3,37.3l1.3,3H108
		L109.3,37.3z M114.6,44l-4.4-9.4h-2l-4.4,9.4h2.5l0.8-2h4.2l0.8,2H114.6z M99.6,38.5H98v-2h1.6c0.5,0,0.9,0.1,1.2,0.2
		c0.2,0.2,0.3,0.4,0.3,0.8s-0.1,0.6-0.4,0.8S100.1,38.5,99.6,38.5 M102.7,41.2c-0.1-0.3-0.3-0.6-0.5-0.8s-0.4-0.3-0.7-0.4
		c0.6-0.2,1.1-0.5,1.4-1c0.3-0.5,0.5-1,0.5-1.7c0-0.9-0.3-1.6-0.9-2.1c-0.6-0.5-1.4-0.7-2.6-0.7h-4.4V44h2.4v-3.7H99
		c0.5,0,0.8,0.2,1,0.5l1.2,3.1h2.6L102.7,41.2L102.7,41.2z M89,38.5v-2h1.7c0.5,0,0.8,0.1,1.1,0.3s0.3,0.4,0.3,0.8
		c0,0.7-0.5,1-1.4,1H89L89,38.5z M86.5,44.1H89v-3.7h2c1.1,0,1.9-0.3,2.5-0.8s0.9-1.2,0.9-2.1s-0.3-1.6-0.9-2.1
		c-0.6-0.5-1.4-0.8-2.5-0.8h-4.5V44.1L86.5,44.1z"/>
	<path class="st0" d="M200.2,22.8h-3.8v-3.7h-2.4v9.4h2.4v-3.8h3.8v3.8h2.4v-9.4h-2.4V22.8z M188.9,26.7h-2v-2h2
		c0.5,0,0.8,0.1,1,0.2c0.2,0.1,0.3,0.4,0.3,0.8s-0.1,0.6-0.3,0.8C189.8,26.6,189.4,26.7,188.9,26.7 M186.9,21h1.7
		c0.4,0,0.8,0.1,1,0.2s0.3,0.4,0.3,0.7s-0.1,0.5-0.3,0.7c-0.2,0.1-0.6,0.2-1,0.2h-1.7L186.9,21L186.9,21z M190.9,23.7
		c0.5-0.2,0.8-0.4,1.1-0.8c0.3-0.4,0.4-0.8,0.4-1.3c0-0.8-0.3-1.4-0.9-1.8c-0.6-0.4-1.4-0.7-2.4-0.7h-4.6v9.4h4.7
		c0.7,0,1.3-0.1,1.8-0.3c0.5-0.2,0.9-0.5,1.2-0.9s0.4-0.8,0.4-1.4c0-0.6-0.1-1.1-0.4-1.5C191.8,24.1,191.4,23.8,190.9,23.7
		 M178,25.6l-2.8-6.4h-1.9v9.4h2.2v-4.3l1.8,4.3h1.6l1.8-4.3v4.3h2.2v-9.4h-1.9L178,25.6L178,25.6z M167.6,23.2v1.7h1.6v1.8
		c-0.4,0.1-0.8,0.1-1.2,0.1c-0.9,0-1.6-0.2-2-0.7s-0.6-1.2-0.6-2.2s0.2-1.7,0.6-2.2c0.4-0.5,1-0.7,1.9-0.7c0.5,0,0.9,0.1,1.3,0.2
		c0.4,0.1,0.8,0.3,1.2,0.6l0.8-1.8c-0.4-0.3-0.9-0.5-1.5-0.7c-0.6-0.2-1.2-0.3-1.9-0.3c-1,0-1.9,0.2-2.6,0.6c-0.7,0.4-1.3,1-1.7,1.7
		c-0.4,0.7-0.6,1.6-0.6,2.5s0.2,1.9,0.6,2.6s1,1.3,1.7,1.7c0.8,0.4,1.6,0.6,2.7,0.6c0.6,0,1.3-0.1,1.9-0.2c0.6-0.1,1.2-0.3,1.7-0.5
		v-4.7L167.6,23.2L167.6,23.2z M157.5,19.1H155v9.4h2.5V19.1z M149,21.8l1.3,3h-2.6L149,21.8L149,21.8z M154.4,28.5l-4.4-9.4h-2
		l-4.4,9.4h2.5l0.8-2h4.2l0.8,2H154.4z M138.2,25.6l-2.8-6.4h-1.9v9.4h2.2v-4.3l1.8,4.3h1.6l1.8-4.3v4.3h2.2v-9.4H141L138.2,25.6
		L138.2,25.6z M125.5,28.5h2.5v-2.5h-2.5V28.5z M119.2,25.6l-2.8-6.4h-1.9v9.4h2.2v-4.3l1.8,4.3h1.6l1.8-4.3v4.3h2.2v-9.4H122
		L119.2,25.6L119.2,25.6z M107.8,23.9v-2.5h-1.6v2.5h-2.4v1.6h2.4V28h1.6v-2.5h2.4v-1.6H107.8z M97.5,28.5h2.5v-2.5h-2.5V28.5z
		 M91.2,25.6l-2.8-6.4h-1.9v9.4h2.2v-4.3l1.8,4.3H92l1.8-4.3v4.3H96v-9.4h-1.9L91.2,25.6L91.2,25.6z"/>
</g>
<path class="st0" d="M64.7,40.7l1,9.3l-9.1,1l-1-9.3l-9.2,1l-1-9.2l9.2-1l-1-9.3l9.1-1l1,9.3l8.8-0.9C69.4,11.6,52-1.8,32.7,0.2
	C19.1,1.6,8,10.4,3,22.1l9.8-1l7.7,18.7l0.4,0l3.7-19.9l15.2-1.6l3.9,37.3L33,56.6l-2.3-22.2l-0.5,0l-4.1,22.9l-7.4,0.8L9.9,36.6
	l-0.5,0l2.3,22.2L8,59.2c7.5,9.4,19.5,14.9,32.3,13.5c17.6-1.8,31-16,32.5-33L64.7,40.7L64.7,40.7z"/>
</svg>
