<?xml version="1.0" encoding="utf-8"?>
<!-- Generator: Adobe Illustrator 14.0.0, SVG Export Plug-In . SVG Version: 6.00 Build 43363)  -->
<!DOCTYPE svg PUBLIC "-//W3C//DTD SVG 1.1//EN" "http://www.w3.org/Graphics/SVG/1.1/DTD/svg11.dtd">
<svg version="1.1" id="Ebene_1" xmlns="http://www.w3.org/2000/svg" xmlns:xlink="http://www.w3.org/1999/xlink" x="0px" y="0px"
	 width="160px" height="37px" viewBox="-91.509 33.873 160 37" enable-background="new -91.509 33.873 160 37" xml:space="preserve"
	>
<g>
	<path fill="#FF692D" d="M4.59,40.493H1.899c-0.075,0-0.14,0.063-0.14,0.14v3.097c0,0.078,0.066,0.141,0.14,0.141H4.59
		c0.078,0,0.14-0.063,0.14-0.141v-3.097C4.73,40.556,4.668,40.493,4.59,40.493z"/>
	<path fill="#FF692D" d="M-33.102,40.248c-2.839,0-4.339,1.527-4.339,4.418v14.141c0,2.892,1.5,4.419,4.339,4.419
		c2.837,0,4.336-1.527,4.336-4.419v-3.138c0-0.078-0.063-0.141-0.138-0.141h-2.53c-0.076,0-0.138,0.063-0.138,0.141v3.138
		c0,1.413-0.503,2.1-1.53,2.1c-1.031,0-1.531-0.687-1.531-2.1v-6.3h5.729c0.076,0,0.138-0.063,0.138-0.139v-7.703
		C-28.766,41.775-30.265,40.248-33.102,40.248z M-31.572,49.946h-3.061v-5.28c0-1.413,0.5-2.102,1.53-2.102
		c1.027,0,1.531,0.688,1.531,2.102V49.946z"/>
	<path fill="#FF692D" d="M-21.488,40.248c-2.581,0-4.377,1.565-4.377,3.807v2.608c0,0.078,0.058,0.141,0.137,0.141h2.528
		c0.079,0,0.14-0.063,0.14-0.141v-2.078c0-1.34,0.23-2.021,1.488-2.021c0.798,0,1.328,0.297,1.328,1.736v4.669
		c-3.892,0.036-5.868,1.52-5.868,4.416v6.033c0,2.384,1.18,3.807,3.156,3.807c1.421,0,2.185-0.484,2.875-1.277v0.893
		c0,0.078,0.062,0.141,0.14,0.141h2.365c0.076,0,0.139-0.063,0.139-0.141V44.258C-17.438,41.523-18.724,40.248-21.488,40.248z
		 M-21.858,60.906c-1.23,0-1.447-0.742-1.447-2.304V53.55c0-1.721,1.862-2.226,3.061-2.262v7.476
		C-20.244,60.126-20.833,60.906-21.858,60.906z"/>
	<path fill="#FF692D" d="M-4.169,40.248c-1.009,0-1.834,0.417-2.595,1.297c-0.547-0.813-1.424-1.297-2.379-1.297
		c-1.207,0-2.057,0.458-2.877,1.566v-1.182c0-0.077-0.061-0.14-0.139-0.14h-2.365c-0.076,0-0.138,0.063-0.138,0.14V62.84
		c0,0.078,0.062,0.141,0.138,0.141h2.53c0.076,0,0.14-0.063,0.14-0.141V44.708c0-0.913,0.466-1.898,1.486-1.898
		c0.789,0,1.126,0.531,1.126,1.776V62.84c0,0.078,0.063,0.141,0.14,0.141h2.526c0.078,0,0.139-0.063,0.139-0.141V44.708
		c0-0.913,0.466-1.898,1.488-1.898c0.79,0,1.124,0.531,1.124,1.776V62.84c0,0.078,0.065,0.141,0.14,0.141h2.528
		c0.077,0,0.139-0.063,0.139-0.141v-19.11C-1.016,42.046-1.844,40.248-4.169,40.248z"/>
	<path fill="#FF692D" d="M4.59,59.603H1.899c-0.075,0-0.14,0.063-0.14,0.141v3.096c0,0.079,0.066,0.141,0.14,0.141H4.59
		c0.078,0,0.14-0.063,0.14-0.141v-3.096C4.73,59.666,4.668,59.603,4.59,59.603z"/>
	<path fill="#FF692D" d="M24.231,40.248c-1.472,0-2.508,0.497-3.322,1.604v-1.219c0-0.077-0.065-0.14-0.14-0.14h-2.366
		c-0.076,0-0.139,0.063-0.139,0.14V62.84c0,0.078,0.064,0.141,0.139,0.141h2.53c0.076,0,0.138-0.063,0.138-0.141V46.174
		c0-2.301,0.825-3.119,3.159-3.119c0.079,0,0.139-0.063,0.139-0.14v-2.526C24.37,40.311,24.309,40.248,24.231,40.248z"/>
	<path fill="#FF692D" d="M30.467,40.248c-2.581,0-4.379,1.565-4.379,3.807v2.608c0,0.078,0.065,0.141,0.139,0.141h2.528
		c0.08,0,0.14-0.063,0.14-0.141v-2.078c0-1.34,0.23-2.021,1.488-2.021c0.797,0,1.329,0.297,1.329,1.736v4.669
		c-3.892,0.036-5.869,1.52-5.869,4.416v6.033c0,2.384,1.183,3.807,3.156,3.807c1.423,0,2.184-0.484,2.876-1.277v0.893
		c0,0.078,0.064,0.141,0.14,0.141h2.365c0.079,0,0.137-0.063,0.137-0.141V44.258C34.517,41.523,33.231,40.248,30.467,40.248z
		 M30.1,60.906c-1.234,0-1.45-0.742-1.45-2.304V53.55c0-1.721,1.859-2.226,3.062-2.262v7.476
		C31.712,60.148,31.139,60.906,30.1,60.906z"/>
	<path fill="#FF692D" d="M42.693,40.248c-1.293,0-2.295,0.76-2.877,1.552v-1.168c0-0.077-0.063-0.14-0.141-0.14h-2.365
		c-0.079,0-0.138,0.063-0.138,0.14V62.84c0,0.078,0.059,0.141,0.138,0.141h2.528c0.079,0,0.14-0.063,0.14-0.141V44.708
		c0-0.787,0.499-1.898,1.611-1.898c1.196,0,1.45,1.032,1.45,1.898V62.84c0,0.078,0.062,0.141,0.14,0.141h2.523
		c0.081,0,0.144-0.063,0.144-0.141v-19.11C45.847,42.046,45.02,40.248,42.693,40.248z"/>
	<path fill="#FF692D" d="M57.036,40.493h-2.365c-0.079,0-0.143,0.063-0.143,0.14v1.115c-0.528-0.743-1.483-1.499-2.71-1.499
		c-1.985,0-3.32,1.463-3.32,3.644v14.101c0,2.925,1.698,3.97,3.281,3.97c0.963,0,1.889-0.439,2.588-1.208v2.736
		c0,1.104-0.586,1.815-1.491,1.815c-0.539,0-1.446-0.229-1.446-1.773V62.88c0-0.078-0.066-0.14-0.14-0.14h-2.528
		c-0.079,0-0.14,0.063-0.14,0.14v0.814c0,2.533,2.081,3.687,4.01,3.687c3.016,0,4.543-1.569,4.543-4.663V40.632
		C57.177,40.556,57.113,40.493,57.036,40.493z M52.715,59.399c-1.11,0-1.407-1.014-1.407-1.61V44.87
		c0-1.367,0.432-2.061,1.287-2.061c0.856,0,1.774,0.435,1.774,1.654v12.63C54.368,58.623,53.812,59.399,52.715,59.399z"/>
	<path fill="#FF692D" d="M68.362,52.507c0.08,0,0.14-0.063,0.14-0.139v-7.703c0-2.891-1.5-4.417-4.334-4.417
		c-2.839,0-4.339,1.527-4.339,4.417v14.141c0,2.892,1.5,4.419,4.339,4.419c2.835,0,4.334-1.527,4.334-4.419v-3.139
		c0-0.077-0.062-0.14-0.14-0.14h-2.525c-0.079,0-0.14,0.063-0.14,0.14v3.139c0,1.412-0.499,2.099-1.53,2.099
		c-1.046,0-1.53-0.666-1.53-2.099v-6.3H68.362z M65.697,49.946h-3.061v-5.28c0-1.433,0.485-2.102,1.531-2.102
		c1.031,0,1.53,0.688,1.53,2.102V49.946z"/>
	<path fill="#FF692D" d="M11.476,40.248c-2.84,0-4.339,1.527-4.339,4.418v14.141c0,2.892,1.499,4.419,4.339,4.419
		c2.836,0,4.338-1.527,4.338-4.419V44.666C15.815,41.775,14.312,40.248,11.476,40.248z M9.946,44.666
		c0-1.433,0.488-2.102,1.531-2.102c1.027,0,1.527,0.688,1.527,2.102v14.141c0,1.412-0.5,2.099-1.527,2.099
		c-1.042,0-1.531-0.666-1.531-2.099V44.666z"/>
	<path fill="#FF692D" d="M-39.292,40.493h-7.23c-0.08,0-0.141,0.063-0.141,0.14v2.412c0,0.077,0.062,0.139,0.141,0.139h2.292v19.656
		c0,0.079,0.065,0.141,0.14,0.141h2.365c0.079,0,0.14-0.063,0.14-0.141V43.183h2.294c0.079,0,0.141-0.062,0.141-0.139v-2.412
		C-39.151,40.556-39.214,40.493-39.292,40.493z"/>
	<path fill="#D5D1C7" d="M-57.798,34.025h-1.794c-0.076,0-0.14,0.063-0.14,0.142v36.341c0,0.078,0.065,0.141,0.14,0.141h1.794
		c0.076,0,0.139-0.063,0.139-0.141V34.167C-57.66,34.088-57.722,34.025-57.798,34.025z"/>
	<path fill="#D5D1C7" d="M-73.592,40.248c-2.839,0-4.338,1.527-4.338,4.418v14.141c0,2.892,1.5,4.419,4.338,4.419
		c2.836,0,4.335-1.527,4.335-4.419V44.666C-69.256,41.775-70.755,40.248-73.592,40.248z M-75.125,44.666
		c0-1.413,0.503-2.102,1.534-2.102c1.027,0,1.53,0.688,1.53,2.102v14.141c0,1.412-0.503,2.099-1.53,2.099
		c-1.03,0-1.534-0.687-1.534-2.099V44.666z"/>
	<path fill="#D5D1C7" d="M-83.906,40.493h-7.231c-0.079,0-0.14,0.063-0.14,0.14v2.412c0,0.077,0.062,0.139,0.14,0.139h2.292v19.656
		c0,0.079,0.062,0.141,0.14,0.141h2.367c0.076,0,0.138-0.063,0.138-0.141V43.183h2.295c0.078,0,0.14-0.062,0.14-0.139v-2.412
		C-83.765,40.556-83.827,40.493-83.906,40.493z"/>
	<path fill="#D5D1C7" d="M-80.303,59.603h-2.687c-0.079,0-0.14,0.063-0.14,0.141v3.096c0,0.079,0.062,0.141,0.14,0.141h2.688
		c0.079,0,0.14-0.063,0.14-0.141v-3.096C-80.163,59.666-80.224,59.603-80.303,59.603z"/>
	<path fill="#D5D1C7" d="M-80.303,45.386h-2.687c-0.079,0-0.14,0.063-0.14,0.141v3.097c0,0.078,0.062,0.14,0.14,0.14h2.688
		c0.079,0,0.14-0.063,0.14-0.14v-3.096C-80.163,45.45-80.224,45.386-80.303,45.386z"/>
	<rect x="-104.975" y="23.933" fill="none" width="182.861" height="53.759"/>
</g>
</svg>
