<?xml version="1.0" encoding="utf-8"?>
<!-- Generator: Adobe Illustrator 26.3.1, SVG Export Plug-In . SVG Version: 6.00 Build 0)  -->
<svg version="1.1" id="Ebene_1" xmlns="http://www.w3.org/2000/svg" xmlns:xlink="http://www.w3.org/1999/xlink" x="0px" y="0px"
	 viewBox="0 0 350.2 101.7" style="enable-background:new 0 0 350.2 101.7;" xml:space="preserve">
<style type="text/css">
	.st0{fill:#FFFFFF;}
</style>
<g>
	<g>
		<path class="st0" d="M54.2,64.1c-3.6,0-5.9-0.1-13-0.1c-4.7,0-6.9,1.4-7.8,2.7c-0.5,0.7-0.6,1.3-0.6,1.7v1.5
			c0,2.5,2.9,4.7,6.5,4.7c3.6,0,6.5,0,8.7,0c11,0,12.3-2.3,12.5-5c0,0,0-0.4,0-1.5c0-0.4-0.2-0.9-0.5-1.4
			C59.2,65.4,57.3,64.1,54.2,64.1z"/>
		<path class="st0" d="M131.5,52.2c-1.5-1.9-3.8-2.9-9.9-2.9h-6.3c-4.4,0-8,0.3-10.6,2.2c-2.6,1.9-2.7,6-2.7,6.7v4.3
			c0,1.7,0.1,3.1,0.4,4.2c0.4,1.7,1.1,2.8,2,3.8c1.7,1.9,5.7,2.3,7.9,2.3h5.4c6.1,0,10.4,0.1,13.2-2.5c0.9-0.9,1.5-2.2,1.9-3.6
			c0.5-1.8,0.7-3.7,0.6-5.4C133.3,57.6,132.8,53.9,131.5,52.2z"/>
		<path class="st0" d="M324.3,37.5h-6.7c-8.6,0-12.7,8.3-12.7,12.5v20.8c0,9.4,7.1,13.8,12.7,13.8h7c9.1,0.1,12.2-6.9,12.2-13.4
			h-6.4V72c0,2.3-2.3,5.9-5.4,5.9h-1.4c-2.9,0-5.8-2.9-5.8-7V51.6v-0.8c0-3.7,3.5-6.4,6.2-6.4h0.7c4.1,0,5.7,4.4,5.7,6.7h6.4v-0.8
			C336.8,44.6,333.4,37.5,324.3,37.5z"/>
		<path class="st0" d="M286.9,37.6h-13.1c-8.6,0-12.7,8.3-12.7,12.5v20.8c0,9.4,7.1,13.8,12.7,13.8h13.4c9,0,12.1-8.5,12.1-13.5
			h-6.4v1.1c0,2.3-1.6,5.6-5.5,5.6h-7.8c-2.9,0-5.8-2.9-5.8-7v-6.3h25.6V50.4C299.4,44.7,294.1,37.6,286.9,37.6z M288.2,57.2h-14.4
			v-4.9c0-3.1,2.1-6.9,7.2-6.9c5,0,7.2,3.9,7.2,6.9V57.2z"/>
		<path class="st0" d="M331.7,0H18.5C8.3,0,0,8.3,0,18.5v64.6c0,10.3,8.3,18.6,18.5,18.5h313.1c10.2,0,18.5-8.3,18.5-18.5V18.5
			C350.2,8.3,341.9,0,331.7,0z M77.5,66.7v17.9h-17V77c-2.5,7.5-10.8,8.4-16,8.4H32.1c-11.6,0-16-5.7-16-14.8v-2.7
			c0-0.5,0-0.9,0.1-1.5c0.4-3.3,2-7.7,6-10c3.9-2.2,9.9-2.5,16.2-2.5h10.2c9.8,0,12,5,12,5V55c0-3.4,0.4-6.3-3.6-7.7
			c-1.4-0.5-3.4-0.8-6.1-0.8c-1.7-0.1-3.3-0.1-7.2-0.1c-4,0-6.1,0.2-7.3,0.9c-1,0.6-1.3,1.6-1.5,3.1H18.1c0,0-0.1-1.2,0.3-3
			c0.5-2.7,2.1-6.5,6.4-8.6c5.2-2.4,13-2.8,24.5-2.8h6.8c5.5,0,13.1,0.5,17.5,4.9c1.9,2,2.9,4.5,3.4,6.6c0.5,2.2,0.5,4,0.5,4.5V66.7
			z M149.8,47.5v19.2v18.1h-16.3V75c0,0-1,4.7-4.9,7.5c-3.4,2.4-7.6,3.3-13.3,3.3H109c-4.7,0-14.2-0.4-19.5-4.9
			C85,77,84.8,70.3,84.8,66.7c0-0.5,0-0.9,0-1.2v-9.8c0-2.3,0.3-5.4,1.1-8.2c0.8-2.5,2-4.9,3.9-6.4c4.6-3.7,11.6-5,19.5-5h5.2
			c10.1,0,15.3,3,19,8.6V20.3h16.3V47.5z M220,67.6v2.6c0,3.9-0.6,8.7-5.1,11.9c-4.6,3.2-14,4-21.8,4h-16.3
			c-5.7,0-11.5-0.8-15.2-3.8c-3-2.4-4.9-6.3-4.9-12h17.7c0,4.2,4,4.8,9.4,4.8c5.3,0,7.6,0,10.9,0c5.2,0,8.4-1,8.4-4.4V70
			c0-0.6-0.3-2.7-4.1-3.1l-1.3-0.1H179c-4,0-12.4,0.1-16.3-2.5c-3.8-2.5-5.8-5.5-5.8-13c0-1.2,0.1-2.4,0.3-3.6
			c0.8-4.1,3.3-7.7,9.5-9.5c6.7-1.9,16-1.9,21.2-1.9h7c4.3,0,14.8,0.3,18.8,3.7c2.7,1.9,3.6,5.2,3.9,7.5c0.2,1.5,0.1,2.6,0.1,2.6
			H200c0-0.8-0.4-1.8-2.3-2.5c-1.3-0.5-3.3-0.8-6.3-0.8h-9.7c-2.3,0-4,0.3-5.2,0.8c-1.9,0.8-2.5,2-2.5,3.5c0,2.3,1.9,3.3,4.5,3.3
			h10.9c12.9,0,21.3-0.4,26.1,3.3c3.5,2.7,4.3,6.8,4.4,9.2C220,67.2,220,67.4,220,67.6z M344.6,81.6c0,8.3-6,14.3-14.3,14.3H229.2
			V50.1h7.7v20.3c0,10.9,7.3,14.5,12.9,14.5h6.7v-6.7c-3,0-6.7-1.6-6.7-7.1v-21h6.7V39.6h-6.7V20.3H237v19.4h-7.7v-34h101.1
			c8.4,0,14.3,6,14.3,14.3V81.6z"/>
	</g>
</g>
</svg>
